<svg id="Layer_1" xmlns="http://www.w3.org/2000/svg" viewBox="0 0 512 512"><style>.st0{fill:url(#SVGID_1_)}.st1{fill:url(#SVGID_2_)}</style><g id="Outline"><path d="M429.1 356c35.9-61.9 35.9-138.2 0-200-21-36.2-52.9-65-91.1-82.2C321.7 28.5 271.8 5 226.5 21.3 202.1 30 182.8 49.2 174 73.7c-38.2 17.3-70 46-91.1 82.3-56.6 94.8-25.5 217.5 69.3 274.1s217.5 25.5 274.1-69.3c.9-1.6 1.9-3.2 2.8-4.8zm-11.7-12h-81.9c8.8-25.8 13.7-52.8 14.4-80h89.8c-1.2 28-8.8 55.4-22.3 80zM256 437.4c-23.8-21.6-42.8-48-55.9-77.4h111.8c-13.1 29.4-32.1 55.7-55.9 77.4zM193.6 344c-9.5-25.7-14.7-52.7-15.5-80h34.7c4.5 23.9 27.5 39.6 51.3 35.1a44.15 44.15 0 0 0 35.1-35.1h34.7c-.8 27.3-6 54.3-15.5 80H193.6zm30.2-117.9c-5.6 6.1-9.4 13.7-11 21.9h-34.6c.6-23.5 4.5-46.9 11.6-69.4 9.8 16.9 21.1 32.8 34 47.5zm98.4-47.5c7.1 22.5 11 45.8 11.6 69.4h-34.6c-1.5-8.2-5.3-15.7-11-21.8 12.8-14.7 24.2-30.6 34-47.6zM439.7 248h-89.8c-.7-27.2-5.6-54.2-14.4-80h81.9c13.5 24.6 21.1 52 22.3 80zM343.2 94c25.8 14 47.8 33.9 64.4 58h-72.8c5.8-14.6 9-30.1 9.2-45.9 0-4-.3-8-.9-12 0 0 .1 0 .1-.1zM256 32c40.3.6 72.5 33.8 72 74.1 0 56.1-54.5 113.8-72 130.9-17.5-17-72-74.7-72-130.9-.5-40.3 31.7-73.5 72-74.1zm-87.2 62v.3c-.5 3.9-.8 7.9-.8 11.9.3 15.7 3.4 31.3 9.2 45.9h-72.8C121 127.8 143 108 168.8 94zm-74.2 74h81.9c-8.8 25.8-13.7 52.8-14.4 80H72.3c1.2-28 8.8-55.4 22.3-80zm-22.3 96h89.8c.7 27.2 5.6 54.2 14.4 80H94.6c-13.5-24.6-21.1-52-22.3-80zm32.1 96h78.3c12.1 29.2 29.6 55.9 51.7 78.6-52.6-6.3-100-34.9-130-78.6zm173.1 78.6c22-22.7 39.6-49.4 51.7-78.6h78.3c-29.9 43.7-77.3 72.3-130 78.6z"/><path d="M256 152c26.5 0 48-21.5 48-48s-21.5-48-48-48-48 21.5-48 48 21.5 48 48 48z"/></g><linearGradient id="SVGID_1_" gradientUnits="userSpaceOnUse" x1="228" y1="261.02" x2="284" y2="261.02"><stop offset="0" stop-color="#f16667"/><stop offset="1" stop-color="#bc1d7b"/></linearGradient><path class="st0" d="M284 256c0 15.5-12.5 28-28 28s-28-12.5-28-28c0-6.6 2.3-12.9 6.5-18 8.9 9.4 15.3 15.1 16.2 15.9 3 2.7 7.6 2.7 10.6 0 .9-.8 7.3-6.6 16.2-15.9 4.2 5.1 6.5 11.4 6.5 18z"/><linearGradient id="SVGID_2_" gradientUnits="userSpaceOnUse" x1="224" y1="104" x2="288" y2="104"><stop offset="0" stop-color="#f16667"/><stop offset="1" stop-color="#bc1d7b"/></linearGradient><circle class="st1" cx="256" cy="104" r="32"/></svg>