<svg id="Layer_1" xmlns="http://www.w3.org/2000/svg" xmlns:xlink="http://www.w3.org/1999/xlink" viewBox="0 0 784.9 255.8"><style>.st0{fill:#fff}.st1{clip-path:url(#SVGID_2_);fill:url(#SVGID_3_)}.st2{clip-path:url(#SVGID_5_);fill:url(#SVGID_6_)}.st3{clip-path:url(#SVGID_8_);fill:url(#SVGID_9_)}.st4{clip-path:url(#SVGID_11_);fill:url(#SVGID_12_)}.st5{clip-path:url(#SVGID_14_);fill:url(#SVGID_15_)}.st6{clip-path:url(#SVGID_17_);fill:url(#SVGID_18_)}.st7{clip-path:url(#SVGID_20_);fill:#fff}.st8{clip-path:url(#SVGID_22_);fill:url(#SVGID_23_)}.st9{clip-path:url(#SVGID_25_);fill:url(#SVGID_26_)}.st10{clip-path:url(#SVGID_28_);fill:#fff}</style><path d="M114.1 131.5H82.8c-1.3 0-2.3 1-2.3 2.3v100.1c0 1.3-1 2.3-2.3 2.3H27.7c-1.3 0-2.3-1-2.3-2.3V133.8c0-1.3-1-2.3-2.3-2.3h-6.5c-1.3 0-2.3-1-2.3-2.3L14 90c0-1.3 1-2.3 2.3-2.3h7.3c1.3 0 2.3-1 2.3-2.3V71.2c0-33.1 17.6-52.4 51.6-52.4h36.2c1.3 0 2.3 1 2.3 2.3v42.3c0 1.3-1 2.3-2.3 2.3h-22c-8.2 0-13.1 5-13.1 13.4v8.5H114c1.3 0 2.3 1 2.3 2.3V129c.1 1.4-.9 2.5-2.2 2.5M139.2 18.8h49.6c1.3 0 2.3 1 2.3 2.3v43.6c0 1.3-1 2.3-2.3 2.3h-49.6c-1.3 0-2.3-1-2.3-2.3V21.1c0-1.3 1-2.3 2.3-2.3m-.4 68.9h50.5c1.3 0 2.3 1 2.3 2.3v143.9c0 1.3-1 2.3-2.3 2.3h-50.5c-1.3 0-2.3-1-2.3-2.3V90c0-1.3 1-2.3 2.3-2.3M214.1 18.8h50.5c1.3 0 2.3 1 2.3 2.3V234c0 1.3-1 2.3-2.3 2.3h-50.5c-1.3 0-2.3-1-2.3-2.3V21.1c-.1-1.3 1-2.3 2.3-2.3M287.4 165.4V73.5c0-1.3 1-2.3 2.3-2.3h50.5c1.3 0 2.3 1 2.3 2.3v89.4c0 17.4 9.1 27.7 23.8 27.7s23.7-10.4 23.7-27.7V73.5c0-1.3 1-2.3 2.3-2.3h50.5c1.3 0 2.3 1 2.3 2.3v91.9c0 46.2-31.5 76.3-78.8 76.3-47.2 0-78.9-30.1-78.9-76.3M517.7 135.7H576c1.6 0 2.8-1.6 2.2-3.1-5.3-14.5-16.4-22.3-32-22.3-15 0-25.8 7.9-30.8 22.3-.5 1.6.7 3.1 2.3 3.1m115.9 16.5c0 4.3-.3 8.6-.9 13-.1 1.2-1.2 2.1-2.3 2.1H516.5c-1.5 0-2.7 1.5-2.3 2.9 4.2 17 15.6 25.8 32.1 25.8 12.4 0 22.8-5.4 28.3-14.4.4-.7 1.1-1.1 1.9-1.1h50.4c1.6 0 2.8 1.6 2.3 3.1-12.1 35.8-43.8 58.1-82.9 58.1-50 0-87-37.6-87-88.1 0-50.6 36.7-87.8 87-87.8 51.6 0 87.3 38 87.3 86.4zM762.9 188.8v45.1c0 1.3-1 2.3-2.3 2.3H725c-35.4 0-56.9-22.3-56.9-59v-60c0-1.3-1-2.3-2.3-2.3h-21.3c-2.1 0-3.1-2.5-1.7-4l76.5-76.5c1.5-1.5 4-.4 4 1.7v32.7c0 1.3 1 2.3 2.3 2.3h34.2c1.3 0 2.3 1 2.3 2.3v39.1c0 1.3-1 2.3-2.3 2.3h-34.2c-1.3 0-2.3 1-2.3 2.3v50.2c0 11.8 6.9 19 18.6 19h18.8c1.1.2 2.2 1.2 2.2 2.5"/><g><defs><path id="SVGID_4_" d="M630.8 16c-1.3 0-2.3 1-2.3 2.3v79.1c0 2.1 2.5 3.1 4 1.7l79-79.1c1.5-1.5.4-4-1.7-4h-79z"/></defs><clipPath id="SVGID_2_"><use xlink:href="#SVGID_4_" overflow="visible"/></clipPath><linearGradient id="SVGID_3_" gradientUnits="userSpaceOnUse" x1="-1009.955" y1="1049.903" x2="-1007.847" y2="1049.903" gradientTransform="scale(30.9564 -30.9564) rotate(-40 -1938.078 -890.568)"><stop offset="0" stop-color="#ec6a62"/><stop offset="1" stop-color="#bd1d7b"/></linearGradient><path class="st1" d="M663.4-25.6L754.6 51l-76.5 91.2-91.3-76.6z"/></g><g><defs><path id="SVGID_16_" d="M826.6 16c-1.3 0-2.4 1.1-2.4 2.4V99c0 2.1 2.6 3.2 4.1 1.7l80.6-80.6c1.5-1.5.4-4.1-1.7-4.1h-80.6z"/></defs><clipPath id="SVGID_5_"><use xlink:href="#SVGID_16_" overflow="visible"/></clipPath><linearGradient id="SVGID_6_" gradientUnits="userSpaceOnUse" x1="-995.823" y1="1065.401" x2="-993.496" y2="1065.401" gradientTransform="scale(28.5594 -28.5594) rotate(-40 -1948.11 -875.181)"><stop offset="0" stop-color="#ec6a62"/><stop offset="1" stop-color="#bd1d7b"/></linearGradient><path class="st2" d="M859.8-26.4l93 78-78 93-93-78z"/></g><g><defs><path id="SVGID_24_" d="M0 611.5h1000V1606H0z"/></defs><clipPath id="SVGID_8_"><use xlink:href="#SVGID_24_" overflow="visible"/></clipPath><linearGradient id="SVGID_9_" gradientUnits="userSpaceOnUse" x1="-1022.393" y1="1004.302" x2="-1015.624" y2="1004.302" gradientTransform="scale(208.2365 -208.2365) rotate(-40 -1895.271 -903.675)"><stop offset="0" stop-color="#ec6a62"/><stop offset="1" stop-color="#bd1d7b"/></linearGradient><path class="st3" d="M413.2 119.1l1076.5 903.3-902.9 1076-1076.5-903.3z"/></g></svg>