<svg id="Layer_1" xmlns="http://www.w3.org/2000/svg" xmlns:xlink="http://www.w3.org/1999/xlink" viewBox="0 0 191 255.8"><style>.st0{fill:#fff}.st1{clip-path:url(#SVGID_2_);fill:url(#SVGID_3_)}.st2{clip-path:url(#SVGID_5_);fill:url(#SVGID_6_)}.st3{clip-path:url(#SVGID_8_);fill:url(#SVGID_9_)}.st4{clip-path:url(#SVGID_11_);fill:url(#SVGID_12_)}.st5{clip-path:url(#SVGID_14_);fill:url(#SVGID_15_)}.st6{clip-path:url(#SVGID_17_);fill:url(#SVGID_18_)}</style><path d="M156.3 187.9v46c0 1.3-1.1 2.4-2.4 2.4h-36.3c-36.1 0-58-22.7-58-60.1v-61.1c0-1.3-1.1-2.4-2.4-2.4H35.5c-2.1 0-3.2-2.6-1.7-4.1l77.9-77.9c1.5-1.5 4.1-.4 4.1 1.7v33.3c0 1.3 1.1 2.4 2.4 2.4H153c1.3 0 2.4 1.1 2.4 2.4v39.8c0 1.3-1.1 2.4-2.4 2.4h-34.8c-1.3 0-2.4 1.1-2.4 2.4v51.1c0 12 7.1 19.3 18.9 19.3h19.2c1.3.1 2.4 1.1 2.4 2.4"/><defs><path id="SVGID_16_" d="M21.7 16c-1.3 0-2.4 1.1-2.4 2.4V99c0 2.1 2.6 3.2 4.1 1.7L104 20.1c1.5-1.5.4-4.1-1.7-4.1H21.7z"/></defs><clipPath id="SVGID_2_"><use xlink:href="#SVGID_16_" overflow="visible"/></clipPath><linearGradient id="SVGID_3_" gradientUnits="userSpaceOnUse" x1="-1800.713" y1="1065.401" x2="-1798.386" y2="1065.401" gradientTransform="scale(28.5594 -28.5594) rotate(-40 -2364.648 -1942.174)"><stop offset="0" stop-color="#ec6a62"/><stop offset="1" stop-color="#bd1d7b"/></linearGradient><path class="st1" d="M54.9-26.4l93 78-78 93-93-78z"/></svg>