<svg id="Layer_1" xmlns="http://www.w3.org/2000/svg" xmlns:xlink="http://www.w3.org/1999/xlink" viewBox="0 0 1000 255.8"><style>.st0{fill:#fff}.st1{clip-path:url(#SVGID_2_);fill:url(#SVGID_3_)}.st2{clip-path:url(#SVGID_5_);fill:url(#SVGID_6_)}.st3{clip-path:url(#SVGID_8_);fill:url(#SVGID_9_)}.st4{clip-path:url(#SVGID_11_);fill:url(#SVGID_12_)}.st5{clip-path:url(#SVGID_14_);fill:url(#SVGID_15_)}.st6{clip-path:url(#SVGID_17_);fill:url(#SVGID_18_)}.st7{clip-path:url(#SVGID_20_);fill:#fff}.st8{clip-path:url(#SVGID_22_);fill:url(#SVGID_23_)}.st9{clip-path:url(#SVGID_25_);fill:url(#SVGID_26_)}.st10{clip-path:url(#SVGID_28_);fill:#fff}</style><path class="st0" d="M114.1 131.5H82.8c-1.3 0-2.3 1-2.3 2.3v100.1c0 1.3-1 2.3-2.3 2.3H27.7c-1.3 0-2.3-1-2.3-2.3V133.8c0-1.3-1-2.3-2.3-2.3h-6.5c-1.3 0-2.3-1-2.3-2.3L14 90c0-1.3 1-2.3 2.3-2.3h7.3c1.3 0 2.3-1 2.3-2.3V71.2c0-33.1 17.6-52.4 51.6-52.4h36.2c1.3 0 2.3 1 2.3 2.3v42.3c0 1.3-1 2.3-2.3 2.3h-22c-8.2 0-13.1 5-13.1 13.4v8.5H114c1.3 0 2.3 1 2.3 2.3V129c.1 1.4-.9 2.5-2.2 2.5M139.2 18.8h49.6c1.3 0 2.3 1 2.3 2.3v43.6c0 1.3-1 2.3-2.3 2.3h-49.6c-1.3 0-2.3-1-2.3-2.3V21.1c0-1.3 1-2.3 2.3-2.3m-.4 68.9h50.5c1.3 0 2.3 1 2.3 2.3v143.9c0 1.3-1 2.3-2.3 2.3h-50.5c-1.3 0-2.3-1-2.3-2.3V90c0-1.3 1-2.3 2.3-2.3M214.1 18.8h50.5c1.3 0 2.3 1 2.3 2.3V234c0 1.3-1 2.3-2.3 2.3h-50.5c-1.3 0-2.3-1-2.3-2.3V21.1c-.1-1.3 1-2.3 2.3-2.3M287.4 165.4V73.5c0-1.3 1-2.3 2.3-2.3h50.5c1.3 0 2.3 1 2.3 2.3v89.4c0 17.4 9.1 27.7 23.8 27.7s23.7-10.4 23.7-27.7V73.5c0-1.3 1-2.3 2.3-2.3h50.5c1.3 0 2.3 1 2.3 2.3v91.9c0 46.2-31.5 76.3-78.8 76.3-47.2 0-78.9-30.1-78.9-76.3M517.7 135.7H576c1.6 0 2.8-1.6 2.2-3.1-5.3-14.5-16.4-22.3-32-22.3-15 0-25.8 7.9-30.8 22.3-.5 1.6.7 3.1 2.3 3.1m115.9 16.5c0 4.3-.3 8.6-.9 13-.1 1.2-1.2 2.1-2.3 2.1H516.5c-1.5 0-2.7 1.5-2.3 2.9 4.2 17 15.6 25.8 32.1 25.8 12.4 0 22.8-5.4 28.3-14.4.4-.7 1.1-1.1 1.9-1.1h50.4c1.6 0 2.8 1.6 2.3 3.1-12.1 35.8-43.8 58.1-82.9 58.1-50 0-87-37.6-87-88.1 0-50.6 36.7-87.8 87-87.8 51.6 0 87.3 38 87.3 86.4zM762.9 188.8v45.1c0 1.3-1 2.3-2.3 2.3H725c-35.4 0-56.9-22.3-56.9-59v-60c0-1.3-1-2.3-2.3-2.3h-21.3c-2.1 0-3.1-2.5-1.7-4l76.5-76.5c1.5-1.5 4-.4 4 1.7v32.7c0 1.3 1 2.3 2.3 2.3h34.2c1.3 0 2.3 1 2.3 2.3v39.1c0 1.3-1 2.3-2.3 2.3h-34.2c-1.3 0-2.3 1-2.3 2.3v50.2c0 11.8 6.9 19 18.6 19h18.8c1.1.2 2.2 1.2 2.2 2.5"/><g><defs><path id="SVGID_7_" d="M630.8 20c-1.3 0-2.3 1-2.3 2.3v79.1c0 2.1 2.5 3.1 4 1.7l79-79.1c1.5-1.5.4-4-1.7-4h-79z"/></defs><clipPath id="SVGID_2_"><use xlink:href="#SVGID_7_" overflow="visible"/></clipPath><linearGradient id="SVGID_3_" gradientUnits="userSpaceOnUse" x1="-2.875" y1="733.365" x2="-.767" y2="733.365" gradientTransform="scale(30.9564 -30.9564) rotate(-40 -999.875 334.563)"><stop offset="0" stop-color="#ec6a62"/><stop offset="1" stop-color="#bd1d7b"/></linearGradient><path class="st1" d="M663.4-21.6L754.6 55l-76.5 91.2-91.3-76.6z"/></g><g><path class="st0" d="M815.4 216.3h2.4v13.5c-1.5 1.5-3.4 2.7-5.6 3.4-2.2.8-4.5 1.2-6.9 1.2-3.5 0-6.6-.8-9.4-2.4-2.8-1.6-5-3.8-6.5-6.5-1.6-2.8-2.4-5.9-2.4-9.4s.8-6.6 2.4-9.4c1.6-2.8 3.8-5 6.5-6.5 2.8-1.6 5.9-2.4 9.4-2.4 2.6 0 4.9.4 7.1 1.3 2.1.8 4 2.1 5.5 3.7l-1.6 1.8c-1.5-1.5-3.1-2.6-4.9-3.3-1.8-.7-3.8-1-6-1-3 0-5.7.7-8.1 2.1-2.4 1.4-4.3 3.3-5.7 5.7-1.4 2.4-2 5.1-2 8.1s.7 5.6 2.1 8.1c1.4 2.4 3.3 4.3 5.7 5.7 2.4 1.4 5.1 2.1 8.1 2.1 4 0 7.3-1.1 9.9-3.3v-12.5zM844.6 220.1c3.7 0 6.6-.9 8.5-2.6 2-1.7 2.9-4.1 2.9-7.2 0-3.1-1-5.5-2.9-7.2-2-1.7-4.8-2.6-8.5-2.6h-10v19.6h10zm11.8 14.1l-8.3-12.1c-1.2.2-2.4.3-3.4.3h-10v11.8h-2.5v-36.1h12.5c4.4 0 7.8 1.1 10.3 3.2 2.5 2.2 3.7 5.1 3.7 8.9 0 2.9-.7 5.2-2.1 7.2-1.4 1.9-3.4 3.3-6.1 4.1l8.8 12.6h-2.9zM893.9 230c2.4-1.4 4.2-3.3 5.6-5.7 1.4-2.4 2-5.1 2-8.1s-.7-5.7-2-8.1c-1.4-2.4-3.2-4.3-5.6-5.7-2.4-1.4-5-2.1-8-2.1-2.9 0-5.6.7-8 2.1-2.4 1.4-4.3 3.3-5.6 5.7-1.4 2.4-2 5.1-2 8.1s.7 5.7 2 8.1c1.4 2.4 3.2 4.3 5.6 5.7 2.4 1.4 5 2.1 8 2.1 3-.1 5.6-.7 8-2.1m-17.3 2.1c-2.8-1.6-4.9-3.8-6.5-6.6-1.6-2.8-2.4-5.9-2.4-9.3 0-3.4.8-6.5 2.4-9.3 1.6-2.8 3.8-5 6.5-6.6 2.8-1.6 5.9-2.4 9.3-2.4s6.5.8 9.3 2.4c2.8 1.6 4.9 3.8 6.5 6.5 1.6 2.8 2.4 5.9 2.4 9.4s-.8 6.6-2.4 9.4c-1.6 2.8-3.8 5-6.5 6.5-2.8 1.6-5.9 2.4-9.3 2.4s-6.5-.8-9.3-2.4M919.3 230.5c-2.4-2.6-3.7-6.5-3.7-11.6v-20.8h2.5v20.7c0 4.4 1 7.7 3 9.9s4.8 3.3 8.5 3.3 6.5-1.1 8.5-3.3c2-2.2 2.9-5.5 2.9-9.9v-20.7h2.6v20.8c0 5.1-1.2 8.9-3.7 11.6-2.5 2.6-5.9 4-10.3 4s-7.8-1.4-10.3-4M979.7 217.5c2-1.7 2.9-4.1 2.9-7.2 0-3.1-1-5.5-2.9-7.2-2-1.7-4.8-2.6-8.5-2.6h-10V220h10c3.7 0 6.5-.8 8.5-2.5m1.8-16.1c2.5 2.2 3.7 5.1 3.7 8.9 0 3.8-1.2 6.7-3.7 8.9-2.5 2.1-5.9 3.2-10.3 3.2h-10v11.8h-2.5v-36.1h12.5c4.4 0 7.8 1.1 10.3 3.3"/></g><g><defs><path id="SVGID_24_" d="M1026.4 323.5h1000V1318h-1000z"/></defs><clipPath id="SVGID_5_"><use xlink:href="#SVGID_24_" overflow="visible"/></clipPath><linearGradient id="SVGID_6_" gradientUnits="userSpaceOnUse" x1="4.023" y1="716.303" x2="10.792" y2="716.303" gradientTransform="scale(208.2365 -208.2365) rotate(-40 -982.063 356.273)"><stop offset="0" stop-color="#ec6a62"/><stop offset="1" stop-color="#bd1d7b"/></linearGradient><path class="st2" d="M1439.6-168.9l1076.5 903.3-902.9 1076L536.7 907.1z"/></g></svg>