<svg id="Layer_1" xmlns="http://www.w3.org/2000/svg" viewBox="0 0 486 486"><style>.st0{fill:url(#SVGID_1_)}.st1{fill:url(#SVGID_2_)}.st2{fill:url(#SVGID_3_)}</style><linearGradient id="SVGID_1_" gradientUnits="userSpaceOnUse" x1="279.087" y1="132.449" x2="440.82" y2="132.449"><stop offset="0" stop-color="#eb6a62"/><stop offset="1" stop-color="#bc1d7b"/></linearGradient><path class="st0" d="M279.1 40.1h150.6l8.9 8.3 2.2 25.2V120l-4.4 27.2-21.4 5.6H366.6l-23.5 72h-34l-.6-55.8 2.6-20.1-5.9-17-14.5-6.4-3.6-15.7z"/><path d="M96.8 372.6l14.4 21.6v85.6h16v-90.4L109.6 363l-12.8 9.6zM215.1 207.9c13.6 0 24-10.4 24-24h-16c0 4.8-3.2 8-8 8h-16c-4.8 0-8-3.2-8-8h-16c0 13.6 10.4 24 24 24h16z"/><path d="M291.9 271.9h-36.8v-28.8c22.4-8.8 37.6-29.6 40-53.6l8-2.4c9.6-3.2 16.8-12.8 16.8-22.4v-20.8c0-13.6-10.4-24-24-24V72c0-40-32-72-72-72h-32c-40 0-72 32-72 72v48c-13.6 0-24 10.4-24 24v15.2c0 8 4 15.2 10.4 20l13.6 8.8c1.6 24.8 16.8 45.6 40 55.2V272h-36.8c-46.4 0-84 37.6-84 83.2v124.7h16V355.1c0-36.8 30.4-67.2 67.2-67.2h40.8l24 29.6c-2.4 3.2-4 6.4-4 10.4v25.6l-15.2 96.8c-.8 5.6 1.6 12 6.4 15.2l23.2 17.6c5.6 4 13.6 4 19.2 0l23.2-17.6c4.8-3.2 7.2-9.6 6.4-15.2l-15.2-96.8v-25.6c0-4-1.6-7.2-4-10.4l24-29.6h40.8c36.8 0 67.2 30.4 67.2 67.2v124.7h16V355.1c-.1-45.6-37.6-83.2-83.2-83.2zM279.1 120h-17.6c-4-12.8-17.6-19.2-30.4-14.4-7.2 2.4-12 8-14.4 14.4h-19.2c-4-12.8-17.6-19.2-30.4-14.4-7.2 2.4-12 8-14.4 14.4h-17.6V96.8h1.6c19.2 0 37.6-8.8 49.6-23.2 29.6 8.8 60.8 14.4 92.8 14.4v32zm-32 7.9c0 4.8-3.2 8-8 8s-8-3.2-8-8 3.2-8 8-8c4.8.1 8 3.2 8 8zm-64 0c0 4.8-3.2 8-8 8s-8-3.2-8-8 3.2-8 8-8c4.8.1 8 3.2 8 8zm8-111.9h32c31.2 0 56 24.8 56 56-32 0-63.2-5.6-92.8-15.2l-5.6-2.4-4 4.8c-9.6 13.6-24.8 21.6-41.6 21.6V72c0-31.2 24.8-56 56-56zm-56 167.9v-4l-20.8-13.6c-2.4-1.6-3.2-4-3.2-6.4v-16c0-4.8 3.2-8 8-8h33.6c4 12.8 17.6 19.2 30.4 14.4 7.2-2.4 12-8 14.4-14.4h19.2c4 12.8 17.6 19.2 30.4 14.4 7.2-2.4 12-8 14.4-14.4h33.6c4.8 0 8 3.2 8 8v20.8c0 3.2-2.4 6.4-5.6 7.2l-18.4 6.4v5.6c0 26.4-21.6 48-48 48h-48c-26.4 0-48-21.6-48-48zm40 63.2c2.4 0 5.6.8 8 .8h48c2.4 0 5.6 0 8-.8v24.8h-64v-24.8zm36 64.8h-8l-19.2-24h46.4l-19.2 24z"/><path d="M287.1 389.4v90.4h16v-85.6l14.4-21.6-12.8-9.6-17.6 26.4zM423 32H281.8v16H423c4.8 0 8 3.2 8 8v80c0 4.8-3.2 8-8 8h-61.6l-24 72H317v-42h-16v58h47.6l24-72H423c13.6 0 24-10.4 24-24V56c0-13.6-10.4-24-24-24z"/><path d="M311.1 88h24v16h-24V88zM351.1 88h24v16h-24V88zM391 88h24v16h-24V88z"/><linearGradient id="SVGID_2_" gradientUnits="userSpaceOnUse" x1="199.12" y1="335.862" x2="215.113" y2="335.862"><stop offset="0" stop-color="#eb6a62"/><stop offset="1" stop-color="#bc1d7b"/></linearGradient><path class="st1" d="M199.1 327.9h16v16h-16z"/><linearGradient id="SVGID_3_" gradientUnits="userSpaceOnUse" x1="183.923" y1="414.63" x2="230.306" y2="414.63"><stop offset="0" stop-color="#eb6a62"/><stop offset="1" stop-color="#bc1d7b"/></linearGradient><path class="st2" d="M207.1 469.4l-23.2-17.6 14.4-91.9h17.6l14.4 92.7z"/></svg>