<svg id="Layer_1" xmlns="http://www.w3.org/2000/svg" viewBox="0 0 512 512"><style>.st0{fill:url(#SVGID_1_)}</style><linearGradient id="SVGID_1_" gradientUnits="userSpaceOnUse" x1="228.863" y1="296.924" x2="369.699" y2="296.924"><stop offset="0" stop-color="#eb6a62"/><stop offset="1" stop-color="#bc1d7b"/></linearGradient><path class="st0" d="M327.7 340.9v-14.3c0-4.2-3.4-7.6-7.6-7.6h-91.2v-44.2h91.3c4.2 0 7.6-3.4 7.6-7.6V253l42 44-42.1 43.9z"/><path d="M480.2 415.4V125.2c0-3-1.8-5.8-4.6-7L300.9 42.6a7.8 7.8 0 0 0-6 0l-174.6 75.6c-2.8 1.2-4.6 3.9-4.6 7v145.6H42.5c-4.2 0-7.6 3.4-7.6 7.6v136.4C15.1 418.4 0 435.8 0 456.6v6c0 4.2 3.4 7.6 7.6 7.6h496.8c4.2 0 7.6-3.4 7.6-7.6v-6c0-19.7-13.5-36.4-31.8-41.2zM130.9 130.2l167-72.3 167 72.3v283.9h-22.6v-45.6c0-4.2-3.4-7.6-7.6-7.6-4.2 0-7.6 3.4-7.6 7.6v45.6h-12.8V194.3c0-4.2-3.4-7.6-7.6-7.6H189.1c-4.2 0-7.6 3.4-7.6 7.6v76.4h-12.8v-96.8h258.4v164.2c0 4.2 3.4 7.6 7.6 7.6s7.6-3.4 7.6-7.6V166.3c0-4.2-3.4-7.6-7.6-7.6H161.1c-4.2 0-7.6 3.4-7.6 7.6v104.4h-22.6V130.2zm90.4 204h91.2v25.6c0 3.1 1.9 5.9 4.8 7.1.9.4 1.9.5 2.8.5 2 0 4-.8 5.5-2.4l6.5-6.8V414H166.6V286h47v40.7c.1 4.1 3.5 7.5 7.7 7.5zm106.4 6.7v-14.3c0-4.2-3.4-7.6-7.6-7.6h-91.2v-44.2h91.3c4.2 0 7.6-3.4 7.6-7.6V253l42 44-42.1 43.9zm19.6 1.5l38.4-40.2c2.8-2.9 2.8-7.6 0-10.5l-60.1-62.9c-2.1-2.2-5.4-3-8.3-1.8-2.9 1.2-4.8 3.9-4.8 7.1v25.6H221.2c-4.2 0-7.6 3.4-7.6 7.6v3.5h-16.9V202h202.4v212.1h-51.8v-71.7zM108.4 286h43v128.1h-43V286zm-58.3 0h43v128.1h-43V286zM15.3 455c.9-14.3 12.7-25.7 27.2-25.7h427c14.5 0 26.3 11.4 27.2 25.7H15.3z"/></svg>