<svg id="Layer_1" xmlns="http://www.w3.org/2000/svg" viewBox="0 0 480 480"><style>.st0{fill:url(#SVGID_1_)}</style><path d="M240 0C142.8.1 64.1 78.8 64 176c0 94.6 162.9 292.7 169.8 301.1 1.5 1.8 3.8 2.9 6.2 2.9s4.6-1.1 6.2-2.9C253.1 468.7 416 270.6 416 176 415.9 78.8 337.2.1 240 0zm0 459.3C209.9 421.7 80 255 80 176c0-88.4 71.6-160 160-160s160 71.6 160 160c0 79-129.9 245.7-160 283.3z"/><path d="M240 40c-75.1 0-136 60.9-136 136s60.9 136 136 136 136-60.9 136-136c-.1-75.1-60.9-135.9-136-136zm0 256c-66.3 0-120-53.7-120-120S173.7 56 240 56s120 53.7 120 120c-.1 66.2-53.8 119.9-120 120z"/><path d="M341.1 161.8l-96-80c-3-2.5-7.3-2.5-10.2 0l-96 80c-2.6 2.2-3.6 5.7-2.4 8.9 1.1 3.2 4.2 5.3 7.5 5.3h24v72c0 4.4 3.6 8 8 8h47.6c4.4 0 8-3.5 8-7.9l.3-48.1H248v48c0 4.4 3.6 8 8 8h48c4.4 0 8-3.6 8-8v-72h24c3.4 0 6.4-2.1 7.5-5.3 1.2-3.1.2-6.7-2.4-8.9z"/><linearGradient id="SVGID_1_" gradientUnits="userSpaceOnUse" x1="166.098" y1="169.199" x2="313.907" y2="169.199"><stop offset="0" stop-color="#eb6a62"/><stop offset="1" stop-color="#bc1d7b"/></linearGradient><path class="st0" d="M304 160c-4.4 0-8 3.6-8 8v72h-32v-48c0-4.4-3.6-8-8-8h-32c-4.4 0-8 3.5-8 7.9l-.3 48.1H184v-72c0-4.4-3.6-8-8-8h-9.9L240 98.4l73.9 61.6H304z"/></svg>