<svg id="Capa_1" xmlns="http://www.w3.org/2000/svg" viewBox="0 0 512 512"><style>.st0{fill:url(#SVGID_1_)}.st1{fill:url(#SVGID_2_)}</style><linearGradient id="SVGID_1_" gradientUnits="userSpaceOnUse" x1="78.466" y1="388.267" x2="160.467" y2="388.267"><stop offset="0" stop-color="#eb6a62"/><stop offset="1" stop-color="#bc1d7b"/></linearGradient><circle class="st0" cx="119.5" cy="388.3" r="41"/><linearGradient id="SVGID_2_" gradientUnits="userSpaceOnUse" x1="368.6" y1="388.267" x2="450.6" y2="388.267"><stop offset="0" stop-color="#eb6a62"/><stop offset="1" stop-color="#bc1d7b"/></linearGradient><circle class="st1" cx="409.6" cy="388.3" r="41"/><path d="M119.5 337.1c-28.2 0-51.2 23-51.2 51.2s23 51.2 51.2 51.2 51.2-23 51.2-51.2c0-28.3-23-51.2-51.2-51.2zm0 85.3c-18.8 0-34.1-15.3-34.1-34.1s15.3-34.1 34.1-34.1 34.1 15.3 34.1 34.1-15.3 34.1-34.1 34.1zM409.6 337.1c-28.2 0-51.2 23-51.2 51.2s23 51.2 51.2 51.2 51.2-23 51.2-51.2c0-28.3-23-51.2-51.2-51.2zm0 85.3c-18.8 0-34.1-15.3-34.1-34.1s15.3-34.1 34.1-34.1 34.1 15.3 34.1 34.1-15.3 34.1-34.1 34.1z"/><path d="M510.6 289.8l-76.8-119.5c-1.6-2.4-4.3-3.9-7.2-3.9h-93.9c-4.7 0-8.5 3.8-8.5 8.5v213.3c0 4.7 3.8 8.5 8.5 8.5h34.1v-17.1h-25.6V183.5H422l72.9 113.4v82.8h-42.7v17.1h51.2c4.7 0 8.5-3.8 8.5-8.5v-93.9c.1-1.6-.4-3.2-1.3-4.6z"/><path d="M375.5 277.3v-59.7h68.3v-17.1H367c-4.7 0-8.5 3.8-8.5 8.5v76.8c0 4.7 3.8 8.5 8.5 8.5h128v-17.1l-119.5.1zM332.8 106.7H8.5c-4.7 0-8.5 3.8-8.5 8.5v273.1c0 4.7 3.8 8.5 8.5 8.5h68.3v-17.1H17.1v-256h307.2v256H162.1v17.1h170.7c4.7 0 8.5-3.8 8.5-8.5V115.2c0-4.7-3.8-8.5-8.5-8.5z"/><path d="M8.5 345.6h51.2v17.1H8.5zM179.2 345.6h145.1v17.1H179.2zM469.3 345.6h34.1v17.1h-34.1zM34.1 140.8h298.7v17.1H34.1zM110.9 379.7H128v17.1h-17.1zM401.1 379.7h17.1v17.1h-17.1zM34.1 72.5h119.5v17.1H34.1zM0 72.5h17.1v17.1H0z"/></svg>