<svg id="Capa_1" xmlns="http://www.w3.org/2000/svg" viewBox="0 0 480 480"><style>.st0{fill:url(#SVGID_1_)}.st1{fill:url(#SVGID_2_)}</style><linearGradient id="SVGID_1_" gradientUnits="userSpaceOnUse" x1="312" y1="94.344" x2="464" y2="94.344"><stop offset="0" stop-color="#eb6a62"/><stop offset="1" stop-color="#bc1d7b"/></linearGradient><path class="st0" d="M464 120c0 13.3-10.7 24-24 24h-40c-2.1 0-4.2.8-5.7 2.3L368 172.7V152c0-4.4-3.6-8-8-8h-24c-13.3 0-24-10.7-24-24V40c0-13.3 10.7-24 24-24h104c13.3 0 24 10.7 24 24v80z"/><path d="M160 0C93.7 0 40 53.7 40 120v88c0 30.9 25.1 56 56 56h8v-16h-8c-22.1 0-40-17.9-40-40v-88c0-57.4 46.6-104 104-104s104 46.6 104 104v88c0 22.1-17.9 40-40 40h-8v16h8c30.9 0 56-25.1 56-56v-88C280 53.7 226.3 0 160 0zM65.9 377l5.8-9.2-13.5-8.6-5.8 9.2c-17.7 27.9-16.4 63.8 3.3 90.3V480h16v-24c0-1.8-.6-3.6-1.8-5-16.9-21.3-18.6-51-4-74zM440 0H336c-22.1 0-40 17.9-40 40v80c0 22.1 17.9 40 40 40h16v32c0 3.2 1.9 6.2 4.9 7.4 1 .4 2 .6 3.1.6 2.1 0 4.2-.8 5.7-2.3l37.7-37.7H440c22.1 0 40-17.9 40-40V40c0-22.1-17.9-40-40-40zm24 120c0 13.3-10.7 24-24 24h-40c-2.1 0-4.2.8-5.7 2.3L368 172.7V152c0-4.4-3.6-8-8-8h-24c-13.3 0-24-10.7-24-24V40c0-13.3 10.7-24 24-24h104c13.3 0 24 10.7 24 24v80z"/><path d="M336 40h56v16h-56zM408 40h32v16h-32zM336 72h104v16H336zM336 104h56v16h-56zM267.6 368.5l-5.8-9.2-13.5 8.6 5.8 9.2c14.6 23 13 52.7-4 74-1.1 1.4-1.8 3.2-1.8 5v24h16v-21.3c19.7-26.6 21-62.5 3.3-90.3z"/><path d="M472 272h-72c-30 0-54.7 23.7-55.9 53.7L320 369.1V336c0-30.9-25.1-56-56-56h-29.2l-.2-.2-.1.2H216c-8.8 0-16-7.2-16-16v-18.8c24.7-14.3 40-40.6 40-69.2v-64c0-13.3-3.3-26.3-9.6-38-2-3.7-6.6-5.2-10.4-3.4L84.6 134.3c-2.8 1.3-4.6 4.1-4.6 7.2V176c0 28.5 15.3 54.9 40 69.2V264c0 8.8-7.2 16-16 16H56c-30.9 0-56 25.1-56 56v144h16V336c0-22.1 17.9-40 40-40h25.5l72 100.7c1.5 2.1 3.9 3.3 6.4 3.3h.1c2.5 0 4.9-1.2 6.4-3.2l76-100.8H264c22.1 0 40 17.9 40 40v64c0 4.4 3.6 8 8 8 2.9 0 5.6-1.6 7-4.1l37.7-67.9h45.9l-78 144h18.2l78-144h3.2c30.9 0 56-25.1 56-56 0-4.4-3.6-8-8-8zM96 176v-29.4l123.5-58.1c3 7.5 4.5 15.5 4.5 23.5v64c0 35.3-28.7 64-64 64s-64-28.7-64-64zm64.2 202.5L135.5 344h50.7l-26 34.5zm38.1-50.5H124l-22.9-32h2.9c17.7 0 32-14.3 32-32v-11.7c15.6 4.9 32.4 4.9 48 0V264c0 17.7 14.3 32 32 32h6.4l-24.1 32zm225.7-8h-63.2c3.8-18.6 20.2-32 39.2-32h63.2c-3.8 18.6-20.2 32-39.2 32z"/><linearGradient id="SVGID_2_" gradientUnits="userSpaceOnUse" x1="135.48" y1="361.248" x2="186.168" y2="361.248"><stop offset="0" stop-color="#eb6a62"/><stop offset="1" stop-color="#bc1d7b"/></linearGradient><path class="st1" d="M160.2 378.5L135.5 344h50.7z"/></svg>