<svg id="icons" xmlns="http://www.w3.org/2000/svg" viewBox="0 0 512 512"><style>.st0{fill:url(#SVGID_1_)}</style><path d="M101.4 391.9H61.9c-4.4 0-8 3.6-8 8v32c0 4.4 3.6 8 8 8h11.2l6.7 11.2c-6.4 6.6-10.1 15.5-10.1 24.9 0 19.8 16.2 36 36 36s36-16.2 36-36c0-9.4-3.7-18.3-10.1-24.9l6.7-11.2H150V480c0 4.4 3.6 8 8 8h233.1c3.6 13.8 16 24 30.9 24 15 0 27.5-10.4 31-24.3 9.7-1.4 17.1-9.7 17.1-19.7 0-11-9-20-20-20H198V312.1h56c.4 0 .8-.2 1.2-.2H434c11 0 20-9 20-20 0-9.7-6.9-17.8-16.1-19.6V96c0-4.4-3.6-8-8-8H254.1c-4.4 0-8 3.6-8 8v81.8c-2.5-.9-5.3-1.5-8.1-1.5h-40V7.9c0-4.4-3.6-8-8-8h-32c-4.4 0-8 3.6-8 8v384h-7.5l-61-264.3c-2.5-10.7-13.2-17.5-24-15-10.7 2.5-17.5 13.2-15 24l58.9 255.3zM334 104h16v24h-16v-24zm-71.9 0H318v32c0 4.4 3.6 8 8 8h32c4.4 0 8-3.6 8-8v-32h56v167.8H262.1V104zm-.1 183.9h172.1c2.2 0 4 1.8 4 4s-1.8 4-4 4H262v-8zm-64 .2c4.4 0 7.9-3.6 7.9-8s-3.5-8-7.9-8v-8c4.4 0 7.9-3.6 7.9-8s-3.5-8-7.9-8v-8c4.4 0 7.9-3.6 7.9-8s-3.5-8-7.9-8v-8c4.4 0 7.9-3.6 7.9-8s-3.5-8-7.9-8v-7.8h40c4.4 0 8 3.6 8 8v95.8h-48v-8zm224 208c-5.9 0-11-3.2-13.8-8h27.5c-2.7 4.7-7.9 8-13.7 8zm-224-32h252c2.2 0 4 1.8 4 4s-1.8 4-4 4H198v-8zM166 15.9h16V472h-16V15.9zM105.8 496c-11 0-20-9-20-20 0-3.7 1.1-7.2 2.9-10.2l6.2 10.3c.3.5.7.9 1.1 1.3.1.1.1.2.2.3.7.6 1.4 1.1 2.2 1.5.2.1.4.2.6.2.9.3 1.8.5 2.7.6h8c.9 0 1.9-.2 2.7-.6.2-.1.4-.2.6-.2.8-.4 1.6-.9 2.2-1.5.1-.1.1-.2.2-.2.4-.4.8-.8 1.1-1.3l6.2-10.4c1.8 3.1 2.9 6.6 2.9 10.2.2 11.1-8.8 20-19.8 20zm-14-56.1h27.9l-14 23.2-13.9-23.2zm44.3-31.8c.5 0 1-.1 1.5-.2H150v16H69.9v-16h65.2c.4.1.7.2 1 .2zM61 128.3c2.2-.5 4.3.8 4.8 3L126 391.9h-8.2L58.1 133.1c-.5-2.2.8-4.3 2.9-4.8z"/><linearGradient id="SVGID_1_" gradientUnits="userSpaceOnUse" x1="262.08" y1="187.964" x2="421.952" y2="187.964"><stop offset="0" stop-color="#eb6a62"/><stop offset="1" stop-color="#bc1d7b"/></linearGradient><path class="st0" d="M262.1 104H318v32c0 4.4 3.6 8 8 8h32c4.4 0 8-3.6 8-8v-32h56v167.8H262.1V104z"/></svg>