<svg id="Capa_1" xmlns="http://www.w3.org/2000/svg" viewBox="0 0 422.7 422.7"><style>.st0{fill:url(#SVGID_1_)}.st1{fill:url(#SVGID_2_)}</style><path d="M271.8 289.6v-7.4c2.1-1.7 4.1-3.5 6-5.4 15.4-16.9 25.1-38.2 27.7-61 13.8-2.1 26.3-9.5 34.7-20.6 11.6-16.4 12.6-40 3-69.6-.6-1.7-1.7-3.2-3.2-4.2l-4.4-3c.6-26.7-8.6-52.7-25.9-73C288.1 21.2 255.1 9 211.3 8.8c-43.7 0-76.8 12.4-98.3 36.3-17.3 20.3-26.6 46.3-25.9 73l-4.4 3c-1.5 1-2.6 2.5-3.2 4.2-9.7 29.8-8.6 53.2 3 69.6 8.4 11.2 20.9 18.7 34.7 20.9 2.6 22.8 12.3 44.1 27.8 61 1.9 1.9 3.9 3.7 6 5.4v7.4C120.3 295.5-2.1 324.3 0 405.9c0 4.4 3.6 8 8 8h406.6c4.4 0 8-3.6 8-8 2.1-81.6-120.2-110.4-150.8-116.3zm-159.5-91.7c-6.8-2.3-12.7-6.6-17-12.4l.4.1c-8-11.7-8.7-29.4-1.6-52.7l5.8-3.9c2.5-1.6 3.8-4.5 3.5-7.4-1.3-23.9 6.4-47.4 21.8-65.8 18.1-20.5 47.1-30.7 86-30.9s67.9 10.4 86.3 30.9c15.3 18.4 23.1 41.9 21.8 65.8-.3 2.9 1.1 5.8 3.5 7.4l5.8 3.9c7.1 23.3 6.6 41-1.6 52.7-4.3 5.8-10.2 10.1-17 12.4 9.6-11 14.4-25.4 13-40-1.5-8.8-6.1-16.7-12.9-22.4-3.4-80-59.5-89-83.7-89-5.1 0-10.2.4-15.3 1.1-5.1-.8-10.2-1.1-15.3-1.1-24 0-80 8.8-83.7 89-6.9 5.7-11.5 13.6-13 22.3-1.1 14.6 3.6 29.1 13.2 40zm182-65.6c-33.6 1.9-66.9-6.4-95.6-24-3.2-2.3-7.7-1.8-10.4 1-16 17.2-45.2 21.2-59.3 22.1 4.3-56.6 38.6-68.9 67.4-68.9 4.6 0 9.2.3 13.7 1.1 1.1.2 2.1.2 3.2 0 4.5-.8 9.1-1.2 13.7-1.1 28.6 0 63 12.6 67 69.7l.3.1zm-162.4 67.2l.3.1c0-2-.7-3.9-2-5.4-11-12.6-16-24-14.6-33.4.7-5.3 3.2-10.1 7.3-13.5 10.6 0 48-2 72-22.7 27 15.5 57.6 23.8 88.8 24 5.4 0 10.8 0 16.5-.9 3.9 3.3 6.5 8 7.2 13.1 1.4 9.3-3.7 20.9-14.6 33.4-1.3 1.5-2 3.4-2 5.4v4.2l-46.6 25c-9.2-8.7-23.8-8.3-32.6.9s-8.3 23.8.9 32.6c9.2 8.7 23.8 8.3 32.6-.9 4.1-4.3 6.3-10 6.3-15.9v-2.2l36.7-19.7c-3.2 15.8-10.6 30.4-21.4 42.2-14.2 13.7-33.4 20.8-53 19.8h-4c-19.6 1-38.8-6.2-53-19.8-25.4-25.1-24.8-65.9-24.8-66.3zm103.4 45.9c0 3.9-3.2 7.1-7.1 7.1-3.9 0-7.1-3.2-7.1-7.1 0-3.9 3.2-7.1 7.1-7.1s7.1 3.2 7.1 7.1zm-32 152h-187c6.3-60.1 104-85.2 134.6-91.7V320c0 18.2 22.1 32 52.5 34.3v43.1zM166.8 320V292.4c13.3 6.2 27.8 9.2 42.5 9h4c14.7.3 29.2-2.8 42.5-9V320c0 7.6-17.4 18.6-44.5 18.6s-44.5-11-44.5-18.6zm52.5 77.6v-43.4c30.4-2.1 52.5-16 52.5-34.3v-14c30.8 6.4 128 31.5 134.6 91.7H219.3z"/><linearGradient id="SVGID_1_" gradientUnits="userSpaceOnUse" x1="89.283" y1="111.425" x2="333.732" y2="111.425"><stop offset="0" stop-color="#eb6a62"/><stop offset="1" stop-color="#bc1d7b"/></linearGradient><path class="st0" d="M112.3 197.9c-6.8-2.3-12.7-6.6-17-12.4l.4.1c-8-11.7-8.7-29.4-1.6-52.7l5.8-3.9c2.5-1.6 3.8-4.5 3.5-7.4-1.3-23.9 6.4-47.4 21.8-65.8 18.1-20.5 47.1-30.7 86-30.9s67.9 10.4 86.3 30.9c15.3 18.4 23.1 41.9 21.8 65.8-.3 2.9 1.1 5.8 3.5 7.4l5.8 3.9c7.1 23.3 6.6 41-1.6 52.7-4.3 5.8-10.2 10.1-17 12.4 9.6-11 14.4-25.4 13-40-1.5-8.8-6.1-16.7-12.9-22.4-3.4-80-59.5-89-83.7-89-5.1 0-10.2.4-15.3 1.1-5.1-.8-10.2-1.1-15.3-1.1-24 0-80 8.8-83.7 89-6.9 5.7-11.5 13.6-13 22.3-1.1 14.6 3.6 29.1 13.2 40z"/><linearGradient id="SVGID_2_" gradientUnits="userSpaceOnUse" x1="221.066" y1="245.386" x2="235.306" y2="245.386"><stop offset="0" stop-color="#eb6a62"/><stop offset="1" stop-color="#bc1d7b"/></linearGradient><circle class="st1" cx="228.2" cy="245.4" r="7.1"/></svg>