<svg id="Layer_1" xmlns="http://www.w3.org/2000/svg" viewBox="0 0 496 496"><style>.st0{fill:url(#SVGID_1_)}</style><path d="M427.3 176H368V0H0v496h496V244.7L427.3 176zm4.7 27.3l36.7 36.7H432v-36.7zM256 176v240H59.8c-15.2 0-29 8.5-35.8 22.1l-8 16V57.3l9.1 27.4c5.5 16.3 20.7 27.3 38 27.3h81.7c1.3 6.3 4.2 11.9 8 16.8-1.5 1-3.2 2-4.9 3-8.4 4.9-20 11.6-20 25.6 0 12.3 5.5 18.7 9.9 23.9 3.7 4.3 6.1 7.1 6.1 13.5s-2.4 9.2-6.1 13.5c-4.4 5.2-9.9 11.6-9.9 23.9h16c0-6.4 2.4-9.2 6.1-13.5 4.4-5.2 9.9-11.6 9.9-23.9s-5.5-18.7-9.9-23.9c-3.7-4.3-6.1-7.1-6.1-13.5 0-4.3 3.8-7 12-11.7 3.3-1.9 6.6-3.9 9.6-6.3 5.5 2.9 11.7 4.7 18.4 4.7 5.3 0 10.4-1.1 15-3 3.5 4.7 7.8 8.4 11.9 11.8 8.4 7 13.1 11.4 13.1 20.5 0 11.1-3 16.2-6.9 22.6-4.3 7.2-9.1 15.2-9.1 30.8s4.9 23.6 9.1 30.8c3.8 6.4 6.9 11.4 6.9 22.6h16c0-15.6-4.9-23.6-9.1-30.8-3.8-6.4-6.9-11.4-6.9-22.6s3-16.2 6.9-22.6c4.3-7.1 9.1-15.2 9.1-30.8 0-17.1-10.5-25.8-18.9-32.8-3.4-2.8-6.4-5.5-8.8-8.3 5.4-5.4 9.2-12.4 10.8-20.2h81.7c17.2 0 32.5-11 37.9-27.3l9.1-27.4V176H256zm-32.8-80c-3.7-18.2-19.9-32-39.2-32s-35.5 13.8-39.2 32H63.1c-10.3 0-19.5-6.6-22.8-16.4L19.1 16h329.8l-21.2 63.6c-3.3 9.8-12.4 16.4-22.8 16.4h-81.7zm-63.2 8c0-13.2 10.8-24 24-24s24 10.8 24 24-10.8 24-24 24-24-10.8-24-24zM20.9 480l17.4-34.7c4.1-8.2 12.3-13.3 21.5-13.3H256v48H20.9zm251.1 0V192h144v64h64v224H272z"/><linearGradient id="SVGID_1_" gradientUnits="userSpaceOnUse" x1="272" y1="336" x2="480" y2="336"><stop offset="0" stop-color="#eb6a62"/><stop offset="1" stop-color="#bc1d7b"/></linearGradient><path class="st0" d="M272 480V192h144v64h64v224z"/><path d="M352 464h112v-80H352v80zm16-64h80v48h-80v-48zM288 448h48v16h-48v-16zM288 416h48v16h-48v-16zM288 384h48v16h-48v-16zM288 208h112v16H288v-16zM288 240h112v16H288v-16zM288 272h176v16H288v-16zM288 304h176v16H288v-16zM288 336h176v16H288v-16z"/></svg>