<svg id="Layer_1" xmlns="http://www.w3.org/2000/svg" viewBox="0 0 512 512"><style>.st0{fill:url(#SVGID_1_)}.st1{fill:url(#SVGID_2_)}.st2{fill:url(#SVGID_3_)}</style><path d="M448.1 12h-173c-8.9 0-16.2 7.3-16.2 16.2v111.9c0 8.9 7.3 16.2 16.2 16.2h4.2v14.3c0 6.1 5 11.1 11.1 11.1h15.3c3.3 0 6.5-1.5 8.6-4.1l17.1-21.3h116.7c8.9 0 16.2-7.3 16.2-16.2V28.2c0-8.9-7.3-16.2-16.2-16.2z"/><path d="M295.6 267.6l-64.1-28.1-22.6-30.1c15.2-8.8 25.6-25.1 25.6-43.9V74c0-28-22.8-50.9-50.9-50.9h-40.7C114.8 23.1 92 45.9 92 74v91.6c0 18.8 10.4 35.1 25.6 43.9l-22.5 30-62.7 25.1C13 272.3.5 290.8.5 311.7v189.5c0 5.6 4.6 10.2 10.2 10.2l305.2.6c2.7 0 5.3-1.1 7.2-3 1.9-1.9 3-4.5 3-7.2V314.2c-.1-20.2-12-38.5-30.5-46.6zM112.4 74c0-16.8 13.7-30.5 30.5-30.5h40.7c16.8 0 30.5 13.7 30.5 30.5v30.5h-30.5c-16.8 0-30.5-13.7-30.5-30.5V63.8h-20.3V74c0 28 22.8 50.9 50.9 50.9h30.5v40.7c0 16.8-13.7 30.5-30.5 30.5H143c-16.8 0-30.5-13.7-30.5-30.5l-.1-91.6zm25.4 142.4h50.9l21 28-46.5 31-46.5-31 21.1-28zm167.9 275.2l-40.7-.1V369h-20.3v122.5l-162.8-.3V369H61.5v122.2l-40.7-.1V311.7c0-12.5 7.5-23.7 19.2-28.3l49.1-19.7-7.1 42.6c-.6 3.4.7 6.9 3.3 9.3 1.9 1.7 4.3 2.6 6.8 2.6.9 0 1.9-.1 2.8-.4l68-19.4h.8l68 19.4c.9.3 1.9.4 2.8.4 2.5 0 4.9-.9 6.8-2.6 2.6-2.3 3.8-5.8 3.3-9.3l-7-41.9 49.9 21.9c11.1 4.9 18.3 15.8 18.3 28v177.3h-.1z"/><path d="M144.3 399.6h32v16h-32v-16z"/><linearGradient id="SVGID_1_" gradientUnits="userSpaceOnUse" x1="275.1" y1="416.079" x2="448.1" y2="416.079" gradientTransform="matrix(1 0 0 -1 0 512.93)"><stop offset="0" stop-color="#eb6a62"/><stop offset="1" stop-color="#bc1d7b"/></linearGradient><path class="st0" d="M448.1 140.1H326c-1.5 0-3 .7-4 1.9l-18.8 23.5h-7.7v-20.3c0-2.8-2.3-5.1-5.1-5.1h-15.3V28.2H448v111.9h.1z"/><linearGradient id="SVGID_2_" gradientUnits="userSpaceOnUse" x1="187.8" y1="233.779" x2="221.8" y2="233.779" gradientTransform="matrix(1 0 0 -1 0 512.93)"><stop offset="0" stop-color="#eb6a62"/><stop offset="1" stop-color="#bc1d7b"/></linearGradient><path class="st1" d="M221.8 293.7l-34-9.7 29.1-19.4z"/><linearGradient id="SVGID_3_" gradientUnits="userSpaceOnUse" x1="104.7" y1="233.779" x2="138.7" y2="233.779" gradientTransform="matrix(1 0 0 -1 0 512.93)"><stop offset="0" stop-color="#eb6a62"/><stop offset="1" stop-color="#bc1d7b"/></linearGradient><path class="st2" d="M109.6 264.6l29.1 19.4-34 9.7z"/></svg>