<svg id="Layer_1" xmlns="http://www.w3.org/2000/svg" viewBox="0 0 937.5 937.5"><style>.st0{fill:url(#SVGID_1_)}</style><linearGradient id="SVGID_1_" gradientUnits="userSpaceOnUse" x1="31.25" y1="250" x2="750" y2="250"><stop offset="0" stop-color="#eb6a62"/><stop offset="1" stop-color="#bc1d7b"/></linearGradient><path class="st0" d="M31.2 421.9V78.1c0-25.9 21-46.9 46.9-46.9h625c25.9 0 46.9 21 46.9 46.9v99.3h-.1l.1.4v244.1c-.1 2.7-.5 5.4-1.1 8.1L605.8 286.8c-32.2-31.4-83.5-31.7-115.9-.6-32.5 31.1-34.4 82.4-4.4 115.8l61 66.6H78.1c-25.9.2-46.9-20.8-46.9-46.7z"/><g id="surface1"><path d="M781.2 165.5V78.1c0-43.1-35-78-78.1-78.1h-625C35 .1.1 35 0 78.1v343.8c.1 39.9 30.4 73.3 70.1 77.3l58.7 152.5c15.5 40.3 60.7 60.3 101 44.8l366.8-141.3c-25.3 66.2-18.1 140.5 19.5 200.6l9 14.4V922c0 8.6 7 15.6 15.6 15.6h281.2c8.6 0 15.6-7 15.6-15.6V406.1c-.1-54-21.7-105.8-59.9-144l-96.4-96.6zm0 93.5l47.4 123.1c9.3 24.2-2.8 51.3-26.9 60.6l-27.1 10.5c4.3-9.9 6.6-20.5 6.6-31.2V259zm-750 162.9V78.1c0-25.9 21-46.9 46.9-46.9h625c25.9 0 46.9 21 46.9 46.9v99.3h-.1l.1.4v244.1c-.1 2.7-.5 5.4-1.1 8.1L605.8 286.8c-32.2-31.4-83.5-31.7-115.9-.6-32.5 31.1-34.4 82.4-4.4 115.8l61 66.6H78.1c-25.9.2-46.9-20.8-46.9-46.7zM231.4 500l-111.1 42.8-16.4-42.8h127.5zm-12.9 167.3c-24.2 9.3-51.3-2.7-60.6-26.9l-26.4-68.5L318.1 500v-.1h257l20.3 22.1-376.9 145.3zm687.7 238.9h-250v-125h250v125zm0-156.2h-257l-6.8-10.8c-38.1-60.9-39.6-137.8-4-200.1 3.4-5.9 2.5-13.3-2-18.3l-128-139.7c-19.1-20.9-18-53.2 2.4-72.8 20.4-19.6 52.8-19.3 72.8.7l249 248.9 22.1-22.1L797 478l16-6.2c40.2-15.5 60.3-60.7 44.8-100.9l-52.9-137.3 50.6 50.7c32.3 32.3 50.6 76.2 50.7 121.9V750z"/><path d="M178.1 218.8c22.4 0 40.6-18.2 40.6-40.6v-75c0-22.4-18.2-40.6-40.6-40.6h-75c-22.4 0-40.6 18.2-40.6 40.6v75c0 22.4 18.2 40.6 40.6 40.6h75zm-84.3-40.7v-21.9H125V125H93.8v-21.9c0-5.2 4.2-9.4 9.4-9.4h75c5.2 0 9.4 4.2 9.4 9.4V125h-31.2v31.2h31.2v21.9c0 5.2-4.2 9.4-9.4 9.4h-75c-5.3 0-9.4-4.2-9.4-9.4zM78.1 265.6h62.5v31.2H78.1v-31.2zM78.1 359.4h62.5v31.2H78.1v-31.2zM359.4 359.4h62.5v31.2h-62.5v-31.2zM171.9 265.6h62.5v31.2h-62.5v-31.2zM265.6 265.6h62.5v31.2h-62.5v-31.2zM359.4 265.6h62.5v31.2h-62.5v-31.2zM656.2 78.1h31.2V125h-31.2V78.1zM593.8 78.1H625V125h-31.2V78.1zM531.2 78.1h31.2V125h-31.2V78.1zM468.8 78.1H500V125h-31.2V78.1zM687.5 812.5h31.2v31.2h-31.2v-31.2z"/></g></svg>