<?xml version="1.0" encoding="utf-8"?>
<!-- Generator: Adobe Illustrator 23.0.4, SVG Export Plug-In . SVG Version: 6.00 Build 0)  -->
<svg version="1.1" id="Layer_1" xmlns="http://www.w3.org/2000/svg" xmlns:xlink="http://www.w3.org/1999/xlink" x="0px" y="0px"
	 viewBox="0 0 512 512" style="enable-background:new 0 0 512 512;" xml:space="preserve">
<style type="text/css">
	.st0{fill:url(#SVGID_1_);}
	.st1{fill:url(#SVGID_2_);}
</style>
<g id="Outline">
	<path d="M429.1,356c35.9-61.9,35.9-138.2,0-200c-21-36.2-52.9-65-91.1-82.2c-16.3-45.3-66.2-68.8-111.5-52.5
		C202.1,30,182.8,49.2,174,73.7c-38.2,17.3-70,46-91.1,82.3c-56.6,94.8-25.5,217.5,69.3,274.1s217.5,25.5,274.1-69.3
		C427.2,359.2,428.2,357.6,429.1,356z M417.4,344h-81.9c8.8-25.8,13.7-52.8,14.4-80h89.8C438.5,292,430.9,319.4,417.4,344z
		 M256,437.4c-23.8-21.6-42.8-48-55.9-77.4h111.8C298.8,389.4,279.8,415.7,256,437.4z M193.6,344c-9.5-25.7-14.7-52.7-15.5-80h34.7
		c4.5,23.9,27.5,39.6,51.3,35.1c17.8-3.4,31.7-17.3,35.1-35.1h34.7c-0.8,27.3-6,54.3-15.5,80H193.6z M223.8,226.1
		c-5.6,6.1-9.4,13.7-11,21.9h-34.6c0.6-23.5,4.5-46.9,11.6-69.4C199.6,195.5,210.9,211.4,223.8,226.1z M322.2,178.6
		c7.1,22.5,11,45.8,11.6,69.4h-34.6c-1.5-8.2-5.3-15.7-11-21.8C301,211.5,312.4,195.6,322.2,178.6L322.2,178.6z M439.7,248h-89.8
		c-0.7-27.2-5.6-54.2-14.4-80h81.9C430.9,192.6,438.5,220,439.7,248z M343.2,94c25.8,14,47.8,33.9,64.4,58h-72.8
		c5.8-14.6,9-30.1,9.2-45.9c0-4-0.3-8-0.9-12C343.1,94.1,343.2,94.1,343.2,94z M256,32c40.3,0.6,72.5,33.8,72,74.1
		c0,56.1-54.5,113.8-72,130.9c-17.5-17-72-74.7-72-130.9C183.5,65.8,215.7,32.6,256,32z M168.8,94c0,0.1,0,0.2,0,0.3
		c-0.5,3.9-0.8,7.9-0.8,11.9c0.3,15.7,3.4,31.3,9.2,45.9h-72.8C121,127.8,143,108,168.8,94z M94.6,168h81.9
		c-8.8,25.8-13.7,52.8-14.4,80H72.3C73.5,220,81.1,192.6,94.6,168z M72.3,264h89.8c0.7,27.2,5.6,54.2,14.4,80H94.6
		C81.1,319.4,73.5,292,72.3,264z M104.4,360h78.3c12.1,29.2,29.6,55.9,51.7,78.6C181.8,432.3,134.4,403.7,104.4,360z M277.5,438.6
		c22-22.7,39.6-49.4,51.7-78.6h78.3C377.6,403.7,330.2,432.3,277.5,438.6z"/>
	<path d="M256,152c26.5,0,48-21.5,48-48s-21.5-48-48-48s-48,21.5-48,48C208,130.5,229.5,152,256,152z"/>
</g>
<linearGradient id="SVGID_1_" gradientUnits="userSpaceOnUse" x1="227.9997" y1="261.02" x2="284.0002" y2="261.02">
	<stop  offset="0" style="stop-color:#F16667"/>
	<stop  offset="1" style="stop-color:#BC1D7B"/>
</linearGradient>
<path class="st0" d="M284,256c0,15.5-12.5,28-28,28s-28-12.5-28-28c0-6.6,2.3-12.9,6.5-18c8.9,9.4,15.3,15.1,16.2,15.9
	c3,2.7,7.6,2.7,10.6,0c0.9-0.8,7.3-6.6,16.2-15.9C281.7,243.1,284,249.4,284,256z"/>
<linearGradient id="SVGID_2_" gradientUnits="userSpaceOnUse" x1="224" y1="104" x2="288" y2="104">
	<stop  offset="0" style="stop-color:#F16667"/>
	<stop  offset="1" style="stop-color:#BC1D7B"/>
</linearGradient>
<circle class="st1" cx="256" cy="104" r="32"/>
</svg>
