<?xml version="1.0" encoding="utf-8"?>
<!-- Generator: Adobe Illustrator 23.0.4, SVG Export Plug-In . SVG Version: 6.00 Build 0)  -->
<svg version="1.1" id="Layer_1" xmlns="http://www.w3.org/2000/svg" xmlns:xlink="http://www.w3.org/1999/xlink" x="0px" y="0px"
	 viewBox="0 0 191 255.8" style="enable-background:new 0 0 191 255.8;" xml:space="preserve">
<style type="text/css">
	.st0{fill:#FFFFFF;}
	.st1{clip-path:url(#SVGID_2_);fill:url(#SVGID_3_);}
	.st2{clip-path:url(#SVGID_5_);fill:url(#SVGID_6_);}
	.st3{clip-path:url(#SVGID_8_);fill:url(#SVGID_9_);}
	.st4{clip-path:url(#SVGID_11_);fill:url(#SVGID_12_);}
	.st5{clip-path:url(#SVGID_14_);fill:url(#SVGID_15_);}
	.st6{clip-path:url(#SVGID_17_);fill:url(#SVGID_18_);}
	.st7{clip-path:url(#SVGID_20_);fill:#FFFFFF;}
	.st8{clip-path:url(#SVGID_22_);fill:url(#SVGID_23_);}
	.st9{clip-path:url(#SVGID_25_);fill:url(#SVGID_26_);}
	.st10{clip-path:url(#SVGID_28_);fill:#FFFFFF;}
</style>
<g>
	<path class="st0" d="M156.3,187.9v46c0,1.3-1.1,2.4-2.4,2.4h-36.3c-36.1,0-58-22.7-58-60.1v-61.1c0-1.3-1.1-2.4-2.4-2.4H35.5
		c-2.1,0-3.2-2.6-1.7-4.1l77.9-77.9c1.5-1.5,4.1-0.4,4.1,1.7v33.3c0,1.3,1.1,2.4,2.4,2.4H153c1.3,0,2.4,1.1,2.4,2.4v39.8
		c0,1.3-1.1,2.4-2.4,2.4h-34.8c-1.3,0-2.4,1.1-2.4,2.4v51.1c0,12,7.1,19.3,18.9,19.3h19.2C155.2,185.6,156.3,186.6,156.3,187.9"/>
</g>
<g>
	<defs>
		<path id="SVGID_13_" d="M21.7,16c-1.3,0-2.4,1.1-2.4,2.4V99c0,2.1,2.6,3.2,4.1,1.7L104,20.1c1.5-1.5,0.4-4.1-1.7-4.1H21.7z"/>
	</defs>
	<clipPath id="SVGID_2_">
		<use xlink:href="#SVGID_13_"  style="overflow:visible;"/>
	</clipPath>
	
		<linearGradient id="SVGID_3_" gradientUnits="userSpaceOnUse" x1="-1794.2311" y1="769.6765" x2="-1791.9036" y2="769.6765" gradientTransform="matrix(21.8778 18.3576 18.3576 -21.8778 25140.998 49797.3164)">
		<stop  offset="0" style="stop-color:#EC6A62"/>
		<stop  offset="1" style="stop-color:#BD1D7B"/>
	</linearGradient>
	<polygon class="st1" points="54.9,-26.4 147.9,51.6 69.9,144.6 -23.1,66.6 	"/>
</g>
<g>
	<defs>
		<rect id="SVGID_24_" x="-804.9" y="323.5" width="1000" height="994.5"/>
	</defs>
	<clipPath id="SVGID_5_">
		<use xlink:href="#SVGID_24_"  style="overflow:visible;"/>
	</clipPath>
	
		<linearGradient id="SVGID_6_" gradientUnits="userSpaceOnUse" x1="-1827.2831" y1="716.3028" x2="-1820.5143" y2="716.3028" gradientTransform="matrix(159.5184 133.8519 133.8519 -159.5184 194763.7031 359217.8438)">
		<stop  offset="0" style="stop-color:#EC6A62"/>
		<stop  offset="1" style="stop-color:#BD1D7B"/>
	</linearGradient>
	<polygon class="st2" points="-391.7,-168.9 684.8,734.4 -218.1,1810.4 -1294.6,907.1 	"/>
</g>
</svg>
