<?xml version="1.0" encoding="utf-8"?>
<!-- Generator: Adobe Illustrator 23.0.4, SVG Export Plug-In . SVG Version: 6.00 Build 0)  -->
<svg version="1.1" id="Layer_1" xmlns="http://www.w3.org/2000/svg" xmlns:xlink="http://www.w3.org/1999/xlink" x="0px" y="0px"
	 viewBox="0 0 784.9 255.8" style="enable-background:new 0 0 784.9 255.8;" xml:space="preserve">
<style type="text/css">
	.st0{fill:#FFFFFF;}
	.st1{clip-path:url(#SVGID_2_);fill:url(#SVGID_3_);}
	.st2{clip-path:url(#SVGID_5_);fill:url(#SVGID_6_);}
	.st3{clip-path:url(#SVGID_8_);fill:url(#SVGID_9_);}
	.st4{clip-path:url(#SVGID_11_);fill:url(#SVGID_12_);}
	.st5{clip-path:url(#SVGID_14_);fill:url(#SVGID_15_);}
	.st6{clip-path:url(#SVGID_17_);fill:url(#SVGID_18_);}
	.st7{clip-path:url(#SVGID_20_);fill:#FFFFFF;}
	.st8{clip-path:url(#SVGID_22_);fill:url(#SVGID_23_);}
	.st9{clip-path:url(#SVGID_25_);fill:url(#SVGID_26_);}
	.st10{clip-path:url(#SVGID_28_);fill:#FFFFFF;}
</style>
<g>
	<path d="M114.1,131.5H82.8c-1.3,0-2.3,1-2.3,2.3v100.1c0,1.3-1,2.3-2.3,2.3H27.7c-1.3,0-2.3-1-2.3-2.3V133.8c0-1.3-1-2.3-2.3-2.3
		h-6.5c-1.3,0-2.3-1-2.3-2.3L14,90c0-1.3,1-2.3,2.3-2.3h7.3c1.3,0,2.3-1,2.3-2.3V71.2c0-33.1,17.6-52.4,51.6-52.4h36.2
		c1.3,0,2.3,1,2.3,2.3v42.3c0,1.3-1,2.3-2.3,2.3h-22c-8.2,0-13.1,5-13.1,13.4v8.5h35.4c1.3,0,2.3,1,2.3,2.3v39.1
		C116.4,130.4,115.4,131.5,114.1,131.5"/>
	<path d="M139.2,18.8h49.6c1.3,0,2.3,1,2.3,2.3v43.6c0,1.3-1,2.3-2.3,2.3h-49.6c-1.3,0-2.3-1-2.3-2.3V21.1
		C136.9,19.8,137.9,18.8,139.2,18.8 M138.8,87.7h50.5c1.3,0,2.3,1,2.3,2.3v143.9c0,1.3-1,2.3-2.3,2.3h-50.5c-1.3,0-2.3-1-2.3-2.3V90
		C136.5,88.7,137.5,87.7,138.8,87.7"/>
	<path d="M214.1,18.8h50.5c1.3,0,2.3,1,2.3,2.3v212.9c0,1.3-1,2.3-2.3,2.3h-50.5c-1.3,0-2.3-1-2.3-2.3V21.1
		C211.7,19.8,212.8,18.8,214.1,18.8"/>
	<path d="M287.4,165.4V73.5c0-1.3,1-2.3,2.3-2.3h50.5c1.3,0,2.3,1,2.3,2.3v89.4c0,17.4,9.1,27.7,23.8,27.7s23.7-10.4,23.7-27.7V73.5
		c0-1.3,1-2.3,2.3-2.3h50.5c1.3,0,2.3,1,2.3,2.3v91.9c0,46.2-31.5,76.3-78.8,76.3C319.1,241.7,287.4,211.6,287.4,165.4"/>
	<path d="M517.7,135.7H576c1.6,0,2.8-1.6,2.2-3.1c-5.3-14.5-16.4-22.3-32-22.3c-15,0-25.8,7.9-30.8,22.3
		C514.9,134.2,516.1,135.7,517.7,135.7 M633.6,152.2c0,4.3-0.3,8.6-0.9,13c-0.1,1.2-1.2,2.1-2.3,2.1H516.5c-1.5,0-2.7,1.5-2.3,2.9
		c4.2,17,15.6,25.8,32.1,25.8c12.4,0,22.8-5.4,28.3-14.4c0.4-0.7,1.1-1.1,1.9-1.1h50.4c1.6,0,2.8,1.6,2.3,3.1
		c-12.1,35.8-43.8,58.1-82.9,58.1c-50,0-87-37.6-87-88.1c0-50.6,36.7-87.8,87-87.8C597.9,65.8,633.6,103.8,633.6,152.2L633.6,152.2z
		"/>
	<path d="M762.9,188.8v45.1c0,1.3-1,2.3-2.3,2.3h-35.6c-35.4,0-56.9-22.3-56.9-59v-60c0-1.3-1-2.3-2.3-2.3h-21.3
		c-2.1,0-3.1-2.5-1.7-4l76.5-76.5c1.5-1.5,4-0.4,4,1.7v32.7c0,1.3,1,2.3,2.3,2.3h34.2c1.3,0,2.3,1,2.3,2.3v39.1c0,1.3-1,2.3-2.3,2.3
		h-34.2c-1.3,0-2.3,1-2.3,2.3v50.2c0,11.8,6.9,19,18.6,19h18.8C761.8,186.5,762.9,187.5,762.9,188.8"/>
</g>
<g>
	<defs>
		<path id="SVGID_4_" d="M630.8,16c-1.3,0-2.3,1-2.3,2.3v79.1c0,2.1,2.5,3.1,4,1.7L711.5,20c1.5-1.5,0.4-4-1.7-4H630.8z"/>
	</defs>
	<clipPath id="SVGID_2_">
		<use xlink:href="#SVGID_4_"  style="overflow:visible;"/>
	</clipPath>
	
		<linearGradient id="SVGID_3_" gradientUnits="userSpaceOnUse" x1="-1009.9553" y1="1049.9033" x2="-1007.847" y2="1049.9033" gradientTransform="matrix(23.714 19.8984 19.8984 -23.714 3684.4893 45014.5156)">
		<stop  offset="0" style="stop-color:#EC6A62"/>
		<stop  offset="1" style="stop-color:#BD1D7B"/>
	</linearGradient>
	<polygon class="st1" points="663.4,-25.6 754.6,51 678.1,142.2 586.8,65.6 	"/>
</g>
<g>
	<defs>
		<path id="SVGID_16_" d="M826.6,16c-1.3,0-2.4,1.1-2.4,2.4V99c0,2.1,2.6,3.2,4.1,1.7l80.6-80.6c1.5-1.5,0.4-4.1-1.7-4.1H826.6z"/>
	</defs>
	<clipPath id="SVGID_5_">
		<use xlink:href="#SVGID_16_"  style="overflow:visible;"/>
	</clipPath>
	
		<linearGradient id="SVGID_6_" gradientUnits="userSpaceOnUse" x1="-995.8231" y1="1065.4009" x2="-993.4957" y2="1065.4009" gradientTransform="matrix(21.8778 18.3576 18.3576 -21.8778 3049.7224 41610.2344)">
		<stop  offset="0" style="stop-color:#EC6A62"/>
		<stop  offset="1" style="stop-color:#BD1D7B"/>
	</linearGradient>
	<polygon class="st2" points="859.8,-26.4 952.8,51.6 874.8,144.6 781.8,66.6 	"/>
</g>
<g>
	<defs>
		<rect id="SVGID_24_" y="611.5" width="1000" height="994.5"/>
	</defs>
	<clipPath id="SVGID_8_">
		<use xlink:href="#SVGID_24_"  style="overflow:visible;"/>
	</clipPath>
	
		<linearGradient id="SVGID_9_" gradientUnits="userSpaceOnUse" x1="-1022.3931" y1="1004.3022" x2="-1015.6244" y2="1004.3022" gradientTransform="matrix(159.5184 133.8519 133.8519 -159.5184 28624.5547 297711.0312)">
		<stop  offset="0" style="stop-color:#EC6A62"/>
		<stop  offset="1" style="stop-color:#BD1D7B"/>
	</linearGradient>
	<polygon class="st3" points="413.2,119.1 1489.7,1022.4 586.8,2098.4 -489.7,1195.1 	"/>
</g>
</svg>
