<?xml version="1.0" encoding="utf-8"?>
<!-- Generator: Adobe Illustrator 23.0.4, SVG Export Plug-In . SVG Version: 6.00 Build 0)  -->
<svg version="1.1" id="Layer_1" xmlns="http://www.w3.org/2000/svg" xmlns:xlink="http://www.w3.org/1999/xlink" x="0px" y="0px"
	 viewBox="0 0 1000 255.8" style="enable-background:new 0 0 1000 255.8;" xml:space="preserve">
<style type="text/css">
	.st0{fill:#FFFFFF;}
	.st1{clip-path:url(#SVGID_2_);fill:url(#SVGID_3_);}
	.st2{clip-path:url(#SVGID_5_);fill:url(#SVGID_6_);}
	.st3{clip-path:url(#SVGID_8_);fill:url(#SVGID_9_);}
	.st4{clip-path:url(#SVGID_11_);fill:url(#SVGID_12_);}
	.st5{clip-path:url(#SVGID_14_);fill:url(#SVGID_15_);}
	.st6{clip-path:url(#SVGID_17_);fill:url(#SVGID_18_);}
	.st7{clip-path:url(#SVGID_20_);fill:#FFFFFF;}
	.st8{clip-path:url(#SVGID_22_);fill:url(#SVGID_23_);}
	.st9{clip-path:url(#SVGID_25_);fill:url(#SVGID_26_);}
	.st10{clip-path:url(#SVGID_28_);fill:#FFFFFF;}
</style>
<g>
	<path class="st0" d="M114.1,131.5H82.8c-1.3,0-2.3,1-2.3,2.3v100.1c0,1.3-1,2.3-2.3,2.3H27.7c-1.3,0-2.3-1-2.3-2.3V133.8
		c0-1.3-1-2.3-2.3-2.3h-6.5c-1.3,0-2.3-1-2.3-2.3L14,90c0-1.3,1-2.3,2.3-2.3h7.3c1.3,0,2.3-1,2.3-2.3V71.2
		c0-33.1,17.6-52.4,51.6-52.4h36.2c1.3,0,2.3,1,2.3,2.3v42.3c0,1.3-1,2.3-2.3,2.3h-22c-8.2,0-13.1,5-13.1,13.4v8.5h35.4
		c1.3,0,2.3,1,2.3,2.3v39.1C116.4,130.4,115.4,131.5,114.1,131.5"/>
	<path class="st0" d="M139.2,18.8h49.6c1.3,0,2.3,1,2.3,2.3v43.6c0,1.3-1,2.3-2.3,2.3h-49.6c-1.3,0-2.3-1-2.3-2.3V21.1
		C136.9,19.8,137.9,18.8,139.2,18.8 M138.8,87.7h50.5c1.3,0,2.3,1,2.3,2.3v143.9c0,1.3-1,2.3-2.3,2.3h-50.5c-1.3,0-2.3-1-2.3-2.3V90
		C136.5,88.7,137.5,87.7,138.8,87.7"/>
	<path class="st0" d="M214.1,18.8h50.5c1.3,0,2.3,1,2.3,2.3v212.9c0,1.3-1,2.3-2.3,2.3h-50.5c-1.3,0-2.3-1-2.3-2.3V21.1
		C211.7,19.8,212.8,18.8,214.1,18.8"/>
	<path class="st0" d="M287.4,165.4V73.5c0-1.3,1-2.3,2.3-2.3h50.5c1.3,0,2.3,1,2.3,2.3v89.4c0,17.4,9.1,27.7,23.8,27.7
		s23.7-10.4,23.7-27.7V73.5c0-1.3,1-2.3,2.3-2.3h50.5c1.3,0,2.3,1,2.3,2.3v91.9c0,46.2-31.5,76.3-78.8,76.3
		C319.1,241.7,287.4,211.6,287.4,165.4"/>
	<path class="st0" d="M517.7,135.7H576c1.6,0,2.8-1.6,2.2-3.1c-5.3-14.5-16.4-22.3-32-22.3c-15,0-25.8,7.9-30.8,22.3
		C514.9,134.2,516.1,135.7,517.7,135.7 M633.6,152.2c0,4.3-0.3,8.6-0.9,13c-0.1,1.2-1.2,2.1-2.3,2.1H516.5c-1.5,0-2.7,1.5-2.3,2.9
		c4.2,17,15.6,25.8,32.1,25.8c12.4,0,22.8-5.4,28.3-14.4c0.4-0.7,1.1-1.1,1.9-1.1h50.4c1.6,0,2.8,1.6,2.3,3.1
		c-12.1,35.8-43.8,58.1-82.9,58.1c-50,0-87-37.6-87-88.1c0-50.6,36.7-87.8,87-87.8C597.9,65.8,633.6,103.8,633.6,152.2L633.6,152.2z
		"/>
	<path class="st0" d="M762.9,188.8v45.1c0,1.3-1,2.3-2.3,2.3h-35.6c-35.4,0-56.9-22.3-56.9-59v-60c0-1.3-1-2.3-2.3-2.3h-21.3
		c-2.1,0-3.1-2.5-1.7-4l76.5-76.5c1.5-1.5,4-0.4,4,1.7v32.7c0,1.3,1,2.3,2.3,2.3h34.2c1.3,0,2.3,1,2.3,2.3v39.1c0,1.3-1,2.3-2.3,2.3
		h-34.2c-1.3,0-2.3,1-2.3,2.3v50.2c0,11.8,6.9,19,18.6,19h18.8C761.8,186.5,762.9,187.5,762.9,188.8"/>
</g>
<g>
	<defs>
		<path id="SVGID_7_" d="M630.8,20c-1.3,0-2.3,1-2.3,2.3v79.1c0,2.1,2.5,3.1,4,1.7L711.5,24c1.5-1.5,0.4-4-1.7-4H630.8z"/>
	</defs>
	<clipPath id="SVGID_2_">
		<use xlink:href="#SVGID_7_"  style="overflow:visible;"/>
	</clipPath>
	
		<linearGradient id="SVGID_3_" gradientUnits="userSpaceOnUse" x1="-2.8752" y1="733.3652" x2="-0.767" y2="733.3652" gradientTransform="matrix(23.714 19.8984 19.8984 -23.714 -13898.7939 17472.8574)">
		<stop  offset="0" style="stop-color:#EC6A62"/>
		<stop  offset="1" style="stop-color:#BD1D7B"/>
	</linearGradient>
	<polygon class="st1" points="663.4,-21.6 754.6,55 678.1,146.2 586.8,69.6 	"/>
</g>
<g>
	<path class="st0" d="M815.4,216.3h2.4v13.5c-1.5,1.5-3.4,2.7-5.6,3.4c-2.2,0.8-4.5,1.2-6.9,1.2c-3.5,0-6.6-0.8-9.4-2.4
		c-2.8-1.6-5-3.8-6.5-6.5c-1.6-2.8-2.4-5.9-2.4-9.4c0-3.5,0.8-6.6,2.4-9.4c1.6-2.8,3.8-5,6.5-6.5c2.8-1.6,5.9-2.4,9.4-2.4
		c2.6,0,4.9,0.4,7.1,1.3c2.1,0.8,4,2.1,5.5,3.7l-1.6,1.8c-1.5-1.5-3.1-2.6-4.9-3.3c-1.8-0.7-3.8-1-6-1c-3,0-5.7,0.7-8.1,2.1
		c-2.4,1.4-4.3,3.3-5.7,5.7c-1.4,2.4-2,5.1-2,8.1c0,3,0.7,5.6,2.1,8.1c1.4,2.4,3.3,4.3,5.7,5.7c2.4,1.4,5.1,2.1,8.1,2.1
		c4,0,7.3-1.1,9.9-3.3V216.3z"/>
	<path class="st0" d="M844.6,220.1c3.7,0,6.6-0.9,8.5-2.6c2-1.7,2.9-4.1,2.9-7.2c0-3.1-1-5.5-2.9-7.2c-2-1.7-4.8-2.6-8.5-2.6h-10
		v19.6H844.6z M856.4,234.2l-8.3-12.1c-1.2,0.2-2.4,0.3-3.4,0.3h-10v11.8h-2.5v-36.1h12.5c4.4,0,7.8,1.1,10.3,3.2
		c2.5,2.2,3.7,5.1,3.7,8.9c0,2.9-0.7,5.2-2.1,7.2c-1.4,1.9-3.4,3.3-6.1,4.1l8.8,12.6H856.4z"/>
	<path class="st0" d="M893.9,230c2.4-1.4,4.2-3.3,5.6-5.7c1.4-2.4,2-5.1,2-8.1c0-3-0.7-5.7-2-8.1c-1.4-2.4-3.2-4.3-5.6-5.7
		c-2.4-1.4-5-2.1-8-2.1c-2.9,0-5.6,0.7-8,2.1c-2.4,1.4-4.3,3.3-5.6,5.7c-1.4,2.4-2,5.1-2,8.1c0,3,0.7,5.7,2,8.1
		c1.4,2.4,3.2,4.3,5.6,5.7c2.4,1.4,5,2.1,8,2.1C888.9,232,891.5,231.4,893.9,230 M876.6,232.1c-2.8-1.6-4.9-3.8-6.5-6.6
		c-1.6-2.8-2.4-5.9-2.4-9.3c0-3.4,0.8-6.5,2.4-9.3c1.6-2.8,3.8-5,6.5-6.6c2.8-1.6,5.9-2.4,9.3-2.4s6.5,0.8,9.3,2.4
		c2.8,1.6,4.9,3.8,6.5,6.5c1.6,2.8,2.4,5.9,2.4,9.4c0,3.5-0.8,6.6-2.4,9.4c-1.6,2.8-3.8,5-6.5,6.5c-2.8,1.6-5.9,2.4-9.3,2.4
		S879.4,233.7,876.6,232.1"/>
	<path class="st0" d="M919.3,230.5c-2.4-2.6-3.7-6.5-3.7-11.6v-20.8h2.5v20.7c0,4.4,1,7.7,3,9.9c2,2.2,4.8,3.3,8.5,3.3
		c3.7,0,6.5-1.1,8.5-3.3c2-2.2,2.9-5.5,2.9-9.9v-20.7h2.6v20.8c0,5.1-1.2,8.9-3.7,11.6c-2.5,2.6-5.9,4-10.3,4
		C925.2,234.5,921.8,233.1,919.3,230.5"/>
	<path class="st0" d="M979.7,217.5c2-1.7,2.9-4.1,2.9-7.2c0-3.1-1-5.5-2.9-7.2c-2-1.7-4.8-2.6-8.5-2.6h-10V220h10
		C974.9,220,977.7,219.2,979.7,217.5 M981.5,201.4c2.5,2.2,3.7,5.1,3.7,8.9c0,3.8-1.2,6.7-3.7,8.9c-2.5,2.1-5.9,3.2-10.3,3.2h-10
		v11.8h-2.5v-36.1h12.5C975.6,198.1,979,199.2,981.5,201.4"/>
</g>
<g>
	<defs>
		<rect id="SVGID_24_" x="1026.4" y="323.5" width="1000" height="994.5"/>
	</defs>
	<clipPath id="SVGID_5_">
		<use xlink:href="#SVGID_24_"  style="overflow:visible;"/>
	</clipPath>
	
		<linearGradient id="SVGID_6_" gradientUnits="userSpaceOnUse" x1="4.0234" y1="716.3028" x2="10.7921" y2="716.3028" gradientTransform="matrix(159.5184 133.8519 133.8519 -159.5184 -95532.125 114094.0547)">
		<stop  offset="0" style="stop-color:#EC6A62"/>
		<stop  offset="1" style="stop-color:#BD1D7B"/>
	</linearGradient>
	<polygon class="st2" points="1439.6,-168.9 2516.1,734.4 1613.2,1810.4 536.7,907.1 	"/>
</g>
</svg>
