<svg id="Layer_1" data-name="Layer 1" xmlns="http://www.w3.org/2000/svg" xmlns:xlink="http://www.w3.org/1999/xlink" viewBox="0 0 512 512"><defs><style>.cls-1{fill:url(#New_Gradient_Swatch_1);}</style><linearGradient id="New_Gradient_Swatch_1" x1="224" y1="183.82" x2="288" y2="183.82" gradientUnits="userSpaceOnUse"><stop offset="0" stop-color="#f16667"/><stop offset="1" stop-color="#bc1d7b"/></linearGradient></defs><title>LOCATIONS</title><path d="M415.61,131.78a8,8,0,0,0-6.46-5.44L308.28,111.68,263.2,20.28a8.33,8.33,0,0,0-14.34,0l-45.14,91.4L102.85,126.34A8,8,0,0,0,98.4,140l73,71.14L154.18,311.58A8,8,0,0,0,165.79,320l54.12-28.46,28.17,197.4a8,8,0,0,0,15.84,0l28.17-197.38L346.21,320a8,8,0,0,0,11.73-7.08,7.73,7.73,0,0,0-.12-1.36L340.59,211.13l73-71.13a8,8,0,0,0,2-8.22ZM256,431.2,235,283.71l21-11.1,21,11.1Zm70.4-228.58a8,8,0,0,0-2.3,7.08l15.2,88.63-79.58-41.84a8,8,0,0,0-7.46,0l-79.58,41.84,15.2-88.63a8,8,0,0,0-2.3-7.08l-64.39-62.78,89-12.94a8,8,0,0,0,6-4.37L256,41.9l39.8,80.63a8,8,0,0,0,6,4.37l89,12.94Z"/><path d="M256,135.82a48,48,0,1,0,48,48A48,48,0,0,0,256,135.82Z"/><circle class="cls-1" cx="256" cy="183.82" r="32"/></svg>