<?xml version="1.0" encoding="utf-8"?>
<!-- Generator: Adobe Illustrator 23.0.4, SVG Export Plug-In . SVG Version: 6.00 Build 0)  -->
<svg version="1.1" id="Layer_1" xmlns="http://www.w3.org/2000/svg" xmlns:xlink="http://www.w3.org/1999/xlink" x="0px" y="0px"
	 viewBox="0 0 512 512" style="enable-background:new 0 0 512 512;" xml:space="preserve">
<style type="text/css">
	.st0{fill:url(#SVGID_1_);}
</style>
<g id="Outline">
	<path d="M256,96c22.1,0,40-17.9,40-40s-17.9-40-40-40s-40,17.9-40,40C216,78.1,233.9,96,256,96z M256,32c13.3,0,24,10.7,24,24
		s-10.7,24-24,24c-13.3,0-24-10.7-24-24S242.7,32,256,32z"/>
	<path d="M496,368h-32.8c-8-39-73.8-69.9-162.1-77.9l2.4-42.1h8.5c13.3,0,24-10.7,24-24v-64c0-26.5-21.5-48-48-48h-64
		c-26.5,0-48,21.5-48,48v64c0,13.3,10.7,24,24,24h8.5l2.5,42.1c-88.3,8-154.1,38.9-162.1,77.9H16v16h32.9
		c9,44.4,92.7,78.3,199.1,79.9V496h16v-32.1c106.5-1.6,190.1-35.6,199.1-79.9H496V368z M192,224v-64c0-17.7,14.3-32,32-32h64
		c17.7,0,32,14.3,32,32v64c0,4.4-3.6,8-8,8h-8v-72h-16v79.8L280.5,368H264V232h-16v136h-16.5L224,239.8V160h-16v72h-8
		C195.6,232,192,228.4,192,224z M264,447.8V408h-16v39.8C146.3,446.3,75.9,415.4,65.5,384H176v-16H65.5c9.1-27.5,64.3-54.7,146.4-62
		l4.1,70.5c0.3,4.2,3.8,7.5,8,7.5h64c4.2,0,7.7-3.3,8-7.5l4.1-70.4c82,7.3,137.2,34.4,146.4,61.9H336v16h110.5
		C436.1,415.4,365.7,446.3,264,447.8z"/>
</g>
<linearGradient id="SVGID_1_" gradientUnits="userSpaceOnUse" x1="232" y1="56" x2="280" y2="56">
	<stop  offset="0" style="stop-color:#F16667"/>
	<stop  offset="1" style="stop-color:#BC1D7B"/>
</linearGradient>
<circle class="st0" cx="256" cy="56" r="24"/>
</svg>
