<?xml version="1.0" encoding="utf-8"?>
<!-- Generator: Adobe Illustrator 23.0.3, SVG Export Plug-In . SVG Version: 6.00 Build 0)  -->
<svg version="1.1" id="Layer_1" xmlns="http://www.w3.org/2000/svg" xmlns:xlink="http://www.w3.org/1999/xlink" x="0px" y="0px"
	 viewBox="0 0 486 486" style="enable-background:new 0 0 486 486;" xml:space="preserve">
<style type="text/css">
	.st0{fill:url(#SVGID_1_);}
	.st1{fill:url(#SVGID_2_);}
	.st2{fill:url(#SVGID_3_);}
</style>
<linearGradient id="SVGID_1_" gradientUnits="userSpaceOnUse" x1="279.0867" y1="132.4488" x2="440.8203" y2="132.4488">
	<stop  offset="0" style="stop-color:#EB6A62"/>
	<stop  offset="1" style="stop-color:#BC1D7B"/>
</linearGradient>
<polygon class="st0" points="279.1,40.1 429.7,40.1 438.6,48.4 440.8,73.6 440.8,120 436.4,147.2 415,152.8 382.8,152.8 
	366.6,152.8 343.1,224.8 309.1,224.8 308.5,169 311.1,148.9 305.2,131.9 290.7,125.5 287.1,109.8 "/>
<path d="M96.8,372.6l14.4,21.6v85.6h16v-90.4L109.6,363L96.8,372.6z"/>
<path d="M215.1,207.9c13.6,0,24-10.4,24-24h-16c0,4.8-3.2,8-8,8h-16c-4.8,0-8-3.2-8-8h-16c0,13.6,10.4,24,24,24H215.1z"/>
<path d="M291.9,271.9h-36.8v-28.8c22.4-8.8,37.6-29.6,40-53.6l8-2.4c9.6-3.2,16.8-12.8,16.8-22.4v-20.8c0-13.6-10.4-24-24-24V72
	c0-40-32-72-72-72h-32c-40,0-72,32-72,72v48c-13.6,0-24,10.4-24,24v15.2c0,8,4,15.2,10.4,20l13.6,8.8c1.6,24.8,16.8,45.6,40,55.2
	v28.8h-36.8c-46.4,0-84,37.6-84,83.2v124.7h16V355.1c0-36.8,30.4-67.2,67.2-67.2h40.8l24,29.6c-2.4,3.2-4,6.4-4,10.4v25.6
	l-15.2,96.8c-0.8,5.6,1.6,12,6.4,15.2l23.2,17.6c5.6,4,13.6,4,19.2,0l23.2-17.6c4.8-3.2,7.2-9.6,6.4-15.2l-15.2-96.8v-25.6
	c0-4-1.6-7.2-4-10.4l24-29.6h40.8c36.8,0,67.2,30.4,67.2,67.2v124.7h16V355.1C375,309.5,337.5,271.9,291.9,271.9z M279.1,120h-17.6
	c-4-12.8-17.6-19.2-30.4-14.4c-7.2,2.4-12,8-14.4,14.4h-19.2c-4-12.8-17.6-19.2-30.4-14.4c-7.2,2.4-12,8-14.4,14.4h-17.6V96.8h1.6
	c19.2,0,37.6-8.8,49.6-23.2c29.6,8.8,60.8,14.4,92.8,14.4V120z M247.1,127.9c0,4.8-3.2,8-8,8c-4.8,0-8-3.2-8-8c0-4.8,3.2-8,8-8
	C243.9,120,247.1,123.1,247.1,127.9z M183.1,127.9c0,4.8-3.2,8-8,8c-4.8,0-8-3.2-8-8c0-4.8,3.2-8,8-8
	C179.9,120,183.1,123.1,183.1,127.9z M191.1,16h32c31.2,0,56,24.8,56,56c-32,0-63.2-5.6-92.8-15.2l-5.6-2.4l-4,4.8
	c-9.6,13.6-24.8,21.6-41.6,21.6V72C135.1,40.8,159.9,16,191.1,16z M135.1,183.9v-4l-20.8-13.6c-2.4-1.6-3.2-4-3.2-6.4v-16
	c0-4.8,3.2-8,8-8h33.6c4,12.8,17.6,19.2,30.4,14.4c7.2-2.4,12-8,14.4-14.4h19.2c4,12.8,17.6,19.2,30.4,14.4c7.2-2.4,12-8,14.4-14.4
	h33.6c4.8,0,8,3.2,8,8v20.8c0,3.2-2.4,6.4-5.6,7.2l-18.4,6.4v5.6c0,26.4-21.6,48-48,48h-48C156.7,231.9,135.1,210.3,135.1,183.9z
	 M175.1,247.1c2.4,0,5.6,0.8,8,0.8h48c2.4,0,5.6,0,8-0.8v24.8h-64V247.1z M211.1,311.9h-8l-19.2-24h46.4L211.1,311.9z"/>
<path d="M287.1,389.4v90.4h16v-85.6l14.4-21.6l-12.8-9.6L287.1,389.4z"/>
<path d="M423,32H281.8v16H423c4.8,0,8,3.2,8,8v80c0,4.8-3.2,8-8,8h-61.6l-24,72h-20.4v-42h-16v58h47.6l24-72H423
	c13.6,0,24-10.4,24-24V56C447,42.4,436.6,32,423,32z"/>
<path d="M311.1,88h24v16h-24V88z"/>
<path d="M351.1,88h24v16h-24V88z"/>
<path d="M391,88h24v16h-24V88z"/>
<linearGradient id="SVGID_2_" gradientUnits="userSpaceOnUse" x1="199.1196" y1="335.8618" x2="215.1131" y2="335.8618">
	<stop  offset="0" style="stop-color:#EB6A62"/>
	<stop  offset="1" style="stop-color:#BC1D7B"/>
</linearGradient>
<rect x="199.1" y="327.9" class="st1" width="16" height="16"/>
<linearGradient id="SVGID_3_" gradientUnits="userSpaceOnUse" x1="183.9228" y1="414.6301" x2="230.306" y2="414.6301">
	<stop  offset="0" style="stop-color:#EB6A62"/>
	<stop  offset="1" style="stop-color:#BC1D7B"/>
</linearGradient>
<polygon class="st2" points="207.1,469.4 183.9,451.8 198.3,359.9 215.9,359.9 230.3,452.6 "/>
</svg>
