<?xml version="1.0" encoding="utf-8"?>
<!-- Generator: Adobe Illustrator 23.0.3, SVG Export Plug-In . SVG Version: 6.00 Build 0)  -->
<svg version="1.1" id="Layer_1" xmlns="http://www.w3.org/2000/svg" xmlns:xlink="http://www.w3.org/1999/xlink" x="0px" y="0px"
	 viewBox="0 0 512 512" style="enable-background:new 0 0 512 512;" xml:space="preserve">
<style type="text/css">
	.st0{fill:url(#SVGID_1_);}
</style>
<linearGradient id="SVGID_1_" gradientUnits="userSpaceOnUse" x1="228.8633" y1="296.9238" x2="369.6992" y2="296.9238">
	<stop  offset="0" style="stop-color:#EB6A62"/>
	<stop  offset="1" style="stop-color:#BC1D7B"/>
</linearGradient>
<path class="st0" d="M327.7,340.9v-14.3c0-4.2-3.4-7.6-7.6-7.6h-91.2v-44.2h37.8h3.7h49.8c4.2,0,7.6-3.4,7.6-7.6V253l42,44
	L327.7,340.9z"/>
<path d="M480.2,415.4V125.2c0-3-1.8-5.8-4.6-7L300.9,42.6c-1.9-0.8-4.1-0.8-6,0l-174.6,75.6c-2.8,1.2-4.6,3.9-4.6,7v145.6H42.5
	c-4.2,0-7.6,3.4-7.6,7.6v136.4C15.1,418.4,0,435.8,0,456.6v6c0,4.2,3.4,7.6,7.6,7.6h496.8c4.2,0,7.6-3.4,7.6-7.6v-6
	C512,436.9,498.5,420.2,480.2,415.4z M130.9,130.2l167-72.3l167,72.3v283.9h-22.6v-45.6c0-4.2-3.4-7.6-7.6-7.6
	c-4.2,0-7.6,3.4-7.6,7.6v45.6h-12.8V194.3c0-4.2-3.4-7.6-7.6-7.6H189.1c-4.2,0-7.6,3.4-7.6,7.6v76.4h-12.8v-96.8h258.4v164.2
	c0,4.2,3.4,7.6,7.6,7.6s7.6-3.4,7.6-7.6V166.3c0-4.2-3.4-7.6-7.6-7.6H161.1c-4.2,0-7.6,3.4-7.6,7.6v104.4h-22.6V130.2z M221.3,334.2
	h91.2v25.6c0,3.1,1.9,5.9,4.8,7.1c0.9,0.4,1.9,0.5,2.8,0.5c2,0,4-0.8,5.5-2.4l6.5-6.8v55.8H166.6V286h47v40.7
	C213.7,330.8,217.1,334.2,221.3,334.2z M327.7,340.9v-14.3c0-4.2-3.4-7.6-7.6-7.6h-91.2v-44.2h37.8h3.7h49.8c4.2,0,7.6-3.4,7.6-7.6
	V253l42,44L327.7,340.9z M347.3,342.4l38.4-40.2c2.8-2.9,2.8-7.6,0-10.5l-60.1-62.9c-2.1-2.2-5.4-3-8.3-1.8
	c-2.9,1.2-4.8,3.9-4.8,7.1v25.6h-42.2h-3.7h-45.4c-4.2,0-7.6,3.4-7.6,7.6v3.5h-16.9v-68.8h202.4v212.1h-51.8V342.4z M108.4,286h43
	v128.1h-43V286z M50.1,286h43v128.1h-43V286z M15.3,455c0.9-14.3,12.7-25.7,27.2-25.7h0h427c14.5,0,26.3,11.4,27.2,25.7H15.3z"/>
</svg>
