<?xml version="1.0" encoding="utf-8"?>
<!-- Generator: Adobe Illustrator 23.0.3, SVG Export Plug-In . SVG Version: 6.00 Build 0)  -->
<svg version="1.1" id="Layer_1" xmlns="http://www.w3.org/2000/svg" xmlns:xlink="http://www.w3.org/1999/xlink" x="0px" y="0px"
	 viewBox="0 0 480 480" style="enable-background:new 0 0 480 480;" xml:space="preserve">
<style type="text/css">
	.st0{fill:url(#SVGID_1_);}
</style>
<path d="M240,0C142.8,0.1,64.1,78.8,64,176c0,94.6,162.9,292.7,169.8,301.1c1.5,1.8,3.8,2.9,6.2,2.9s4.6-1.1,6.2-2.9
	C253.1,468.7,416,270.6,416,176C415.9,78.8,337.2,0.1,240,0z M240,459.3C209.9,421.7,80,255,80,176c0-88.4,71.6-160,160-160
	c88.4,0,160,71.6,160,160C400,255,270.1,421.7,240,459.3z"/>
<path d="M240,40c-75.1,0-136,60.9-136,136s60.9,136,136,136c75.1,0,136-60.9,136-136C375.9,100.9,315.1,40.1,240,40z M240,296
	c-66.3,0-120-53.7-120-120S173.7,56,240,56s120,53.7,120,120C359.9,242.2,306.2,295.9,240,296z"/>
<path d="M341.1,161.8l-96-80c-3-2.5-7.3-2.5-10.2,0l-96,80c-2.6,2.2-3.6,5.7-2.4,8.9c1.1,3.2,4.2,5.3,7.5,5.3h24v72c0,4.4,3.6,8,8,8
	h47.6c4.4,0,8-3.5,8-7.9l0.3-48.1H248v48c0,4.4,3.6,8,8,8h48c4.4,0,8-3.6,8-8v-72h24c3.4,0,6.4-2.1,7.5-5.3
	C344.7,167.6,343.7,164,341.1,161.8z"/>
<linearGradient id="SVGID_1_" gradientUnits="userSpaceOnUse" x1="166.0981" y1="169.1992" x2="313.9067" y2="169.1992">
	<stop  offset="0" style="stop-color:#EB6A62"/>
	<stop  offset="1" style="stop-color:#BC1D7B"/>
</linearGradient>
<path class="st0" d="M304,160c-4.4,0-8,3.6-8,8v72h-32v-48c0-4.4-3.6-8-8-8h-32c-4.4,0-8,3.5-8,7.9l-0.3,48.1H184v-72
	c0-4.4-3.6-8-8-8h-9.9L240,98.4l73.9,61.6H304z"/>
</svg>
