<?xml version="1.0" encoding="utf-8"?>
<!-- Generator: Adobe Illustrator 23.0.3, SVG Export Plug-In . SVG Version: 6.00 Build 0)  -->
<svg version="1.1" id="icons" xmlns="http://www.w3.org/2000/svg" xmlns:xlink="http://www.w3.org/1999/xlink" x="0px" y="0px"
	 viewBox="0 0 512 512" style="enable-background:new 0 0 512 512;" xml:space="preserve">
<style type="text/css">
	.st0{fill:url(#SVGID_1_);}
</style>
<path d="M101.4,391.9H61.9c-4.4,0-8,3.6-8,8v32c0,4.4,3.6,8,8,8h11.2l6.7,11.2c-6.4,6.6-10.1,15.5-10.1,24.9c0,19.8,16.2,36,36,36
	s36-16.2,36-36c0-9.4-3.7-18.3-10.1-24.9l6.7-11.2H150v40.1c0,4.4,3.6,8,8,8h32h201.1c3.6,13.8,16,24,30.9,24
	c15,0,27.5-10.4,31-24.3c9.7-1.4,17.1-9.7,17.1-19.7c0-11-9-20-20-20H198V312.1H254c0.4,0,0.8-0.2,1.2-0.2H434c11,0,20-9,20-20
	c0-9.7-6.9-17.8-16.1-19.6V96c0-4.4-3.6-8-8-8H254.1c-4.4,0-8,3.6-8,8v81.8c-2.5-0.9-5.3-1.5-8.1-1.5H198V7.9c0-4.4-3.6-8-8-8h-32
	c-4.4,0-8,3.6-8,8v384h-7.5l-61-264.3c-2.5-10.7-13.2-17.5-24-15c-10.7,2.5-17.5,13.2-15,24L101.4,391.9z M334,104h16v24h-16V104z
	 M262.1,104H318v32c0,4.4,3.6,8,8,8h32c4.4,0,8-3.6,8-8v-32h56v167.8H262.1L262.1,104z M262,287.9h168h4.1c2.2,0,4,1.8,4,4
	s-1.8,4-4,4H262L262,287.9z M198,288.1c4.4,0,7.9-3.6,7.9-8s-3.5-8-7.9-8v-8c4.4,0,7.9-3.6,7.9-8s-3.5-8-7.9-8v-8
	c4.4,0,7.9-3.6,7.9-8s-3.5-8-7.9-8v-8c4.4,0,7.9-3.6,7.9-8s-3.5-8-7.9-8v-7.8H238c4.4,0,8,3.6,8,8v95.8H198V288.1z M422,496.1
	c-5.9,0-11-3.2-13.8-8h27.5C433,492.8,427.8,496.1,422,496.1z M198,464.1h252c2.2,0,4,1.8,4,4s-1.8,4-4,4H198L198,464.1z M166,15.9
	h16v456.1h-16V15.9z M105.8,496c-11,0-20-9-20-20c0-3.7,1.1-7.2,2.9-10.2l6.2,10.3c0.3,0.5,0.7,0.9,1.1,1.3c0.1,0.1,0.1,0.2,0.2,0.3
	c0.7,0.6,1.4,1.1,2.2,1.5c0.2,0.1,0.4,0.2,0.6,0.2c0.9,0.3,1.8,0.5,2.7,0.6h0h8h0c0.9,0,1.9-0.2,2.7-0.6c0.2-0.1,0.4-0.2,0.6-0.2
	c0.8-0.4,1.6-0.9,2.2-1.5c0.1-0.1,0.1-0.2,0.2-0.2c0.4-0.4,0.8-0.8,1.1-1.3l6.2-10.4c1.8,3.1,2.9,6.6,2.9,10.2
	C125.8,487.1,116.8,496,105.8,496L105.8,496z M91.8,439.9h27.9l-14,23.2L91.8,439.9z M136.1,408.1c0.5,0,1-0.1,1.5-0.2H150v16H69.9
	v-16h65.2C135.5,408,135.8,408.1,136.1,408.1z M61,128.3c2.2-0.5,4.3,0.8,4.8,3L126,391.9h-8.2L58.1,133.1
	C57.6,130.9,58.9,128.8,61,128.3L61,128.3z"/>
<linearGradient id="SVGID_1_" gradientUnits="userSpaceOnUse" x1="262.08" y1="187.964" x2="421.952" y2="187.964">
	<stop  offset="0" style="stop-color:#EB6A62"/>
	<stop  offset="1" style="stop-color:#BC1D7B"/>
</linearGradient>
<path class="st0" d="M262.1,104H318v32c0,4.4,3.6,8,8,8h32c4.4,0,8-3.6,8-8v-32h56v167.8H262.1L262.1,104z"/>
</svg>
